<svg width="24" height="25" viewBox="0 0 24 25" fill="none" xmlns="http://www.w3.org/2000/svg">
<path d="M12 6.15002C13.1046 6.15002 14 5.25459 14 4.15002C14 3.04545 13.1046 2.15002 12 2.15002C10.8954 2.15002 10 3.04545 10 4.15002C10 5.25459 10.8954 6.15002 12 6.15002Z" fill="#2C2C2C"/>
<path d="M18 7.15002H6C5.45 7.15002 5 7.60002 5 8.15002C5 8.70002 5.45 9.15002 6 9.15002H9.72C9.88 9.15002 10 9.28002 10 9.43002V12.36L8.03 20.92C7.91 21.46 8.24 22 8.78 22.12C9.32 22.24 9.86 21.91 9.98 21.37L11.18 16.18C11.38 15.3 12.63 15.3 12.84 16.18L14.04 21.37C14.15 21.83 14.56 22.14 15.01 22.14C15.08 22.14 15.16 22.14 15.24 22.11C15.78 21.99 16.11 21.45 15.99 20.91L14.02 12.35V9.42002C14.02 9.26002 14.15 9.14002 14.3 9.14002H18.02C18.57 9.14002 19.02 8.69001 19.02 8.14001C19.02 7.59001 18.57 7.14001 18.02 7.14001L18 7.15002Z" fill="#2C2C2C"/>
</svg>
