<svg width="304" height="80" viewBox="0 0 304 80" fill="none" xmlns="http://www.w3.org/2000/svg">
<g filter="url(#filter0_d_322_1406)">
<rect x="16" y="16" width="272" height="48" rx="8" fill="#2291F8"/>
</g>
<path d="M120 46C120.53 46 121.039 46.2107 121.414 46.5858C121.789 46.9609 122 47.4696 122 48C122 48.5304 121.789 49.0391 121.414 49.4142C121.039 49.7893 120.53 50 120 50C119.47 50 118.961 49.7893 118.586 49.4142C118.211 49.0391 118 48.5304 118 48C118 46.89 118.89 46 120 46ZM104 30H107.27L108.21 32H123C123.265 32 123.52 32.1054 123.707 32.2929C123.895 32.4804 124 32.7348 124 33C124 33.17 123.95 33.34 123.88 33.5L120.3 39.97C119.96 40.58 119.3 41 118.55 41H111.1L110.2 42.63L110.17 42.75C110.17 42.8163 110.196 42.8799 110.243 42.9268C110.29 42.9737 110.354 43 110.42 43H122V45H110C109.47 45 108.961 44.7893 108.586 44.4142C108.211 44.0391 108 43.5304 108 43C108 42.65 108.09 42.32 108.24 42.04L109.6 39.59L106 32H104V30ZM110 46C110.53 46 111.039 46.2107 111.414 46.5858C111.789 46.9609 112 47.4696 112 48C112 48.5304 111.789 49.0391 111.414 49.4142C111.039 49.7893 110.53 50 110 50C109.47 50 108.961 49.7893 108.586 49.4142C108.211 49.0391 108 48.5304 108 48C108 46.89 108.89 46 110 46ZM119 39L121.78 34H109.14L111.5 39H119Z" fill="white"/>
<path d="M137.243 36.373L134.27 45H132.472L136.218 35.0469H137.366L137.243 36.373ZM139.731 45L136.751 36.373L136.621 35.0469H137.776L141.536 45H139.731ZM139.588 41.3086V42.6689H134.174V41.3086H139.588ZM146.998 43.4688V34.5H148.652V45H147.155L146.998 43.4688ZM142.186 41.3838V41.2402C142.186 40.6797 142.252 40.1693 142.384 39.709C142.516 39.2441 142.707 38.8454 142.958 38.5127C143.209 38.1755 143.514 37.918 143.874 37.7402C144.234 37.5579 144.64 37.4668 145.091 37.4668C145.537 37.4668 145.929 37.5534 146.267 37.7266C146.604 37.8997 146.891 38.1481 147.128 38.4717C147.365 38.7907 147.554 39.1735 147.695 39.6201C147.837 40.0622 147.937 40.5544 147.996 41.0967V41.5547C147.937 42.0833 147.837 42.5664 147.695 43.0039C147.554 43.4414 147.365 43.8197 147.128 44.1387C146.891 44.4577 146.602 44.7038 146.26 44.877C145.923 45.0501 145.528 45.1367 145.077 45.1367C144.631 45.1367 144.227 45.0433 143.867 44.8564C143.512 44.6696 143.209 44.4076 142.958 44.0703C142.707 43.7331 142.516 43.3366 142.384 42.8809C142.252 42.4206 142.186 41.9215 142.186 41.3838ZM143.833 41.2402V41.3838C143.833 41.721 143.863 42.0355 143.922 42.3271C143.986 42.6188 144.084 42.8763 144.216 43.0996C144.348 43.3184 144.519 43.4915 144.729 43.6191C144.943 43.7422 145.198 43.8037 145.494 43.8037C145.868 43.8037 146.175 43.7217 146.417 43.5576C146.659 43.3936 146.848 43.1725 146.984 42.8945C147.126 42.612 147.221 42.2975 147.271 41.9512V40.7139C147.244 40.445 147.187 40.1943 147.101 39.9619C147.019 39.7295 146.907 39.5267 146.766 39.3535C146.624 39.1758 146.449 39.0391 146.239 38.9434C146.034 38.8431 145.79 38.793 145.508 38.793C145.207 38.793 144.952 38.8568 144.742 38.9844C144.533 39.112 144.359 39.2874 144.223 39.5107C144.09 39.734 143.993 39.9938 143.929 40.29C143.865 40.5863 143.833 40.903 143.833 41.2402ZM154.887 43.4688V34.5H156.541V45H155.044L154.887 43.4688ZM150.074 41.3838V41.2402C150.074 40.6797 150.14 40.1693 150.272 39.709C150.405 39.2441 150.596 38.8454 150.847 38.5127C151.097 38.1755 151.403 37.918 151.763 37.7402C152.123 37.5579 152.528 37.4668 152.979 37.4668C153.426 37.4668 153.818 37.5534 154.155 37.7266C154.493 37.8997 154.78 38.1481 155.017 38.4717C155.254 38.7907 155.443 39.1735 155.584 39.6201C155.725 40.0622 155.826 40.5544 155.885 41.0967V41.5547C155.826 42.0833 155.725 42.5664 155.584 43.0039C155.443 43.4414 155.254 43.8197 155.017 44.1387C154.78 44.4577 154.49 44.7038 154.148 44.877C153.811 45.0501 153.417 45.1367 152.966 45.1367C152.519 45.1367 152.116 45.0433 151.756 44.8564C151.4 44.6696 151.097 44.4076 150.847 44.0703C150.596 43.7331 150.405 43.3366 150.272 42.8809C150.14 42.4206 150.074 41.9215 150.074 41.3838ZM151.722 41.2402V41.3838C151.722 41.721 151.751 42.0355 151.811 42.3271C151.874 42.6188 151.972 42.8763 152.104 43.0996C152.237 43.3184 152.408 43.4915 152.617 43.6191C152.831 43.7422 153.087 43.8037 153.383 43.8037C153.757 43.8037 154.064 43.7217 154.306 43.5576C154.547 43.3936 154.736 43.1725 154.873 42.8945C155.014 42.612 155.11 42.2975 155.16 41.9512V40.7139C155.133 40.445 155.076 40.1943 154.989 39.9619C154.907 39.7295 154.796 39.5267 154.654 39.3535C154.513 39.1758 154.338 39.0391 154.128 38.9434C153.923 38.8431 153.679 38.793 153.396 38.793C153.096 38.793 152.84 38.8568 152.631 38.9844C152.421 39.112 152.248 39.2874 152.111 39.5107C151.979 39.734 151.881 39.9938 151.817 40.29C151.754 40.5863 151.722 40.903 151.722 41.2402ZM165.141 37.6035V38.8066H160.971V37.6035H165.141ZM162.174 35.792H163.821V42.9561C163.821 43.1839 163.853 43.3594 163.917 43.4824C163.985 43.6009 164.079 43.6807 164.197 43.7217C164.316 43.7627 164.455 43.7832 164.614 43.7832C164.728 43.7832 164.838 43.7764 164.942 43.7627C165.047 43.749 165.132 43.7354 165.195 43.7217L165.202 44.9795C165.065 45.0205 164.906 45.057 164.724 45.0889C164.546 45.1208 164.341 45.1367 164.108 45.1367C163.73 45.1367 163.395 45.0706 163.104 44.9385C162.812 44.8018 162.584 44.5807 162.42 44.2754C162.256 43.9701 162.174 43.5645 162.174 43.0586V35.792ZM165.934 41.3838V41.2266C165.934 40.6934 166.011 40.1989 166.166 39.7432C166.321 39.2829 166.544 38.8841 166.836 38.5469C167.132 38.2051 167.492 37.9408 167.916 37.7539C168.344 37.5625 168.827 37.4668 169.365 37.4668C169.908 37.4668 170.391 37.5625 170.814 37.7539C171.243 37.9408 171.605 38.2051 171.901 38.5469C172.198 38.8841 172.423 39.2829 172.578 39.7432C172.733 40.1989 172.811 40.6934 172.811 41.2266V41.3838C172.811 41.917 172.733 42.4115 172.578 42.8672C172.423 43.3229 172.198 43.7217 171.901 44.0635C171.605 44.4007 171.245 44.665 170.821 44.8564C170.397 45.0433 169.917 45.1367 169.379 45.1367C168.837 45.1367 168.351 45.0433 167.923 44.8564C167.499 44.665 167.139 44.4007 166.843 44.0635C166.547 43.7217 166.321 43.3229 166.166 42.8672C166.011 42.4115 165.934 41.917 165.934 41.3838ZM167.581 41.2266V41.3838C167.581 41.7165 167.615 42.0309 167.684 42.3271C167.752 42.6234 167.859 42.8831 168.005 43.1064C168.151 43.3298 168.338 43.5052 168.565 43.6328C168.793 43.7604 169.064 43.8242 169.379 43.8242C169.684 43.8242 169.949 43.7604 170.172 43.6328C170.4 43.5052 170.587 43.3298 170.732 43.1064C170.878 42.8831 170.985 42.6234 171.054 42.3271C171.127 42.0309 171.163 41.7165 171.163 41.3838V41.2266C171.163 40.8984 171.127 40.5885 171.054 40.2969C170.985 40.0007 170.876 39.7386 170.726 39.5107C170.58 39.2829 170.393 39.1051 170.165 38.9775C169.942 38.8454 169.675 38.7793 169.365 38.7793C169.055 38.7793 168.786 38.8454 168.559 38.9775C168.335 39.1051 168.151 39.2829 168.005 39.5107C167.859 39.7386 167.752 40.0007 167.684 40.2969C167.615 40.5885 167.581 40.8984 167.581 41.2266ZM180.699 43.8242C180.968 43.8242 181.21 43.7718 181.424 43.667C181.643 43.5576 181.818 43.4072 181.95 43.2158C182.087 43.0244 182.162 42.8034 182.176 42.5527H183.728C183.718 43.0312 183.577 43.4665 183.304 43.8584C183.03 44.2503 182.668 44.5625 182.217 44.7949C181.766 45.0228 181.267 45.1367 180.72 45.1367C180.155 45.1367 179.662 45.041 179.243 44.8496C178.824 44.6536 178.475 44.3848 178.197 44.043C177.919 43.7012 177.71 43.307 177.568 42.8604C177.432 42.4137 177.363 41.9352 177.363 41.4248V41.1855C177.363 40.6751 177.432 40.1966 177.568 39.75C177.71 39.2988 177.919 38.9023 178.197 38.5605C178.475 38.2188 178.824 37.9521 179.243 37.7607C179.662 37.5648 180.152 37.4668 180.713 37.4668C181.305 37.4668 181.825 37.5853 182.271 37.8223C182.718 38.0547 183.069 38.3805 183.324 38.7998C183.584 39.2145 183.718 39.6976 183.728 40.249H182.176C182.162 39.9756 182.094 39.7295 181.971 39.5107C181.852 39.2874 181.684 39.1097 181.465 38.9775C181.251 38.8454 180.993 38.7793 180.692 38.7793C180.36 38.7793 180.084 38.8477 179.865 38.9844C179.646 39.1165 179.476 39.2988 179.353 39.5312C179.229 39.7591 179.141 40.0166 179.086 40.3037C179.036 40.5863 179.011 40.8802 179.011 41.1855V41.4248C179.011 41.7301 179.036 42.0264 179.086 42.3135C179.136 42.6006 179.223 42.8581 179.346 43.0859C179.473 43.3092 179.646 43.4893 179.865 43.626C180.084 43.7581 180.362 43.8242 180.699 43.8242ZM189.162 43.5166V39.9893C189.162 39.7249 189.114 39.4971 189.019 39.3057C188.923 39.1143 188.777 38.9661 188.581 38.8613C188.39 38.7565 188.148 38.7041 187.856 38.7041C187.588 38.7041 187.355 38.7497 187.159 38.8408C186.963 38.932 186.811 39.055 186.701 39.21C186.592 39.3649 186.537 39.5404 186.537 39.7363H184.896C184.896 39.4447 184.967 39.1621 185.108 38.8887C185.25 38.6152 185.455 38.3714 185.724 38.1572C185.993 37.943 186.314 37.7744 186.688 37.6514C187.061 37.5283 187.48 37.4668 187.945 37.4668C188.501 37.4668 188.993 37.5602 189.422 37.7471C189.855 37.9339 190.194 38.2165 190.44 38.5947C190.691 38.9684 190.816 39.4378 190.816 40.0029V43.291C190.816 43.6283 190.839 43.9313 190.885 44.2002C190.935 44.4645 191.006 44.6947 191.097 44.8906V45H189.408C189.331 44.8223 189.269 44.5967 189.224 44.3232C189.183 44.0452 189.162 43.7764 189.162 43.5166ZM189.401 40.502L189.415 41.5205H188.232C187.927 41.5205 187.658 41.5501 187.426 41.6094C187.193 41.6641 187 41.7461 186.845 41.8555C186.69 41.9648 186.574 42.097 186.496 42.252C186.419 42.4069 186.38 42.5824 186.38 42.7783C186.38 42.9743 186.425 43.1543 186.517 43.3184C186.608 43.4779 186.74 43.6032 186.913 43.6943C187.091 43.7855 187.305 43.8311 187.556 43.8311C187.893 43.8311 188.187 43.7627 188.438 43.626C188.693 43.4847 188.893 43.3138 189.039 43.1133C189.185 42.9082 189.262 42.7145 189.271 42.5322L189.805 43.2637C189.75 43.4505 189.657 43.651 189.524 43.8652C189.392 44.0794 189.219 44.2845 189.005 44.4805C188.795 44.6719 188.542 44.8291 188.246 44.9521C187.954 45.0752 187.617 45.1367 187.234 45.1367C186.751 45.1367 186.321 45.041 185.942 44.8496C185.564 44.6536 185.268 44.3916 185.054 44.0635C184.84 43.7308 184.732 43.3548 184.732 42.9355C184.732 42.5436 184.805 42.1973 184.951 41.8965C185.102 41.5911 185.32 41.3359 185.607 41.1309C185.899 40.9258 186.255 40.7708 186.674 40.666C187.093 40.5566 187.572 40.502 188.109 40.502H189.401ZM194.193 39.0117V45H192.546V37.6035H194.118L194.193 39.0117ZM196.456 37.5557L196.442 39.0869C196.342 39.0687 196.233 39.055 196.114 39.0459C196 39.0368 195.886 39.0322 195.772 39.0322C195.49 39.0322 195.242 39.0732 195.027 39.1553C194.813 39.2327 194.633 39.3467 194.487 39.4971C194.346 39.6429 194.237 39.8206 194.159 40.0303C194.082 40.2399 194.036 40.4746 194.022 40.7344L193.646 40.7617C193.646 40.2969 193.692 39.8662 193.783 39.4697C193.874 39.0732 194.011 38.7246 194.193 38.4238C194.38 38.123 194.613 37.8883 194.891 37.7197C195.173 37.5511 195.499 37.4668 195.868 37.4668C195.968 37.4668 196.076 37.4759 196.189 37.4941C196.308 37.5124 196.397 37.5329 196.456 37.5557ZM201.221 37.6035V38.8066H197.051V37.6035H201.221ZM198.254 35.792H199.901V42.9561C199.901 43.1839 199.933 43.3594 199.997 43.4824C200.065 43.6009 200.159 43.6807 200.277 43.7217C200.396 43.7627 200.535 43.7832 200.694 43.7832C200.808 43.7832 200.918 43.7764 201.022 43.7627C201.127 43.749 201.212 43.7354 201.275 43.7217L201.282 44.9795C201.146 45.0205 200.986 45.057 200.804 45.0889C200.626 45.1208 200.421 45.1367 200.188 45.1367C199.81 45.1367 199.475 45.0706 199.184 44.9385C198.892 44.8018 198.664 44.5807 198.5 44.2754C198.336 43.9701 198.254 43.5645 198.254 43.0586V35.792Z" fill="white"/>
<defs>
<filter id="filter0_d_322_1406" x="0" y="0" width="304" height="80" filterUnits="userSpaceOnUse" color-interpolation-filters="sRGB">
<feFlood flood-opacity="0" result="BackgroundImageFix"/>
<feColorMatrix in="SourceAlpha" type="matrix" values="0 0 0 0 0 0 0 0 0 0 0 0 0 0 0 0 0 0 127 0" result="hardAlpha"/>
<feOffset/>
<feGaussianBlur stdDeviation="8"/>
<feComposite in2="hardAlpha" operator="out"/>
<feColorMatrix type="matrix" values="0 0 0 0 0 0 0 0 0 0 0 0 0 0 0 0 0 0 0.12 0"/>
<feBlend mode="normal" in2="BackgroundImageFix" result="effect1_dropShadow_322_1406"/>
<feBlend mode="normal" in="SourceGraphic" in2="effect1_dropShadow_322_1406" result="shape"/>
</filter>
</defs>
</svg>
