<svg width="24" height="25" viewBox="0 0 24 25" fill="none" xmlns="http://www.w3.org/2000/svg">
<path d="M17 14.1C17.43 14.1 17.81 13.82 17.95 13.42L19.95 7.41998C20.05 7.10998 20 6.77997 19.81 6.51997C19.62 6.25997 19.32 6.09998 19 6.09998H7.72L7.06 4.12997C6.86 3.50997 6.29 3.09998 5.64 3.09998H4C3.45 3.09998 3 3.54998 3 4.09998C3 4.64998 3.45 5.09998 4 5.09998H5.28L7.9 12.95L6.69 14.77C6.38 15.23 6.35 15.82 6.62 16.31C6.88 16.8 7.39 17.1 7.94 17.1H18.01C18.56 17.1 19.01 16.65 19.01 16.1C19.01 15.55 18.56 15.1 18.01 15.1H8.88L9.55 14.1H17.01H17ZM17.61 8.09998L16.28 12.1H9.72L8.39 8.09998H17.61Z" fill="#2C2C2C"/>
<path d="M9 21.1C9.82843 21.1 10.5 20.4284 10.5 19.6C10.5 18.7715 9.82843 18.1 9 18.1C8.17157 18.1 7.5 18.7715 7.5 19.6C7.5 20.4284 8.17157 21.1 9 21.1Z" fill="#2C2C2C"/>
<path d="M16 21.1C16.8284 21.1 17.5 20.4284 17.5 19.6C17.5 18.7715 16.8284 18.1 16 18.1C15.1716 18.1 14.5 18.7715 14.5 19.6C14.5 20.4284 15.1716 21.1 16 21.1Z" fill="#2C2C2C"/>
</svg>
