<svg width="24" height="25" viewBox="0 0 24 25" fill="none" xmlns="http://www.w3.org/2000/svg">
<path d="M9.55 19.05C9.78 20.19 10.79 21.05 12 21.05C13.21 21.05 14.22 20.19 14.45 19.05H9.55Z" fill="#2C2C2C"/>
<path d="M18.95 16.77L17.6 14.32V8.71999C17.6 6.55999 15.84 4.74999 13.46 4.21999C13.31 3.54999 12.71 3.04999 12 3.04999C11.29 3.04999 10.69 3.54999 10.54 4.21999C8.16 4.75999 6.4 6.56999 6.4 8.71999V14.32L5.05 16.77C4.8 17.38 5.26 18.05 5.92 18.05H18.1C18.76 18.05 19.21 17.38 18.97 16.77H18.95Z" fill="#2C2C2C"/>
</svg>
