<svg width="20" height="20" viewBox="0 0 20 20" fill="none" xmlns="http://www.w3.org/2000/svg">
<path d="M16.6665 2.5H5.57734C5.23826 2.50113 4.90752 2.60513 4.62882 2.79827C4.35013 2.99141 4.13661 3.26458 4.01651 3.58167L1.71901 9.7075C1.68412 9.80107 1.66634 9.90014 1.66651 10V11.6667C1.66651 12.5858 2.41401 13.3333 3.33317 13.3333H8.00984L7.07484 16.1392C6.99148 16.3897 6.96871 16.6564 7.0084 16.9175C7.04809 17.1785 7.14911 17.4264 7.30317 17.6408C7.6165 18.0742 8.1215 18.3333 8.6565 18.3333H9.99984C10.2473 18.3333 10.4815 18.2233 10.6407 18.0333L14.5573 13.3333H16.6665C17.5857 13.3333 18.3332 12.5858 18.3332 11.6667V4.16667C18.3332 3.2475 17.5857 2.5 16.6665 2.5ZM9.609 16.6667H8.65484L9.9565 12.7633C9.99821 12.6381 10.0096 12.5048 9.98968 12.3743C9.96977 12.2439 9.91917 12.12 9.84203 12.0129C9.7649 11.9058 9.66343 11.8186 9.54598 11.7584C9.42854 11.6982 9.29848 11.6668 9.1665 11.6667H3.33317V10.1508L5.57734 4.16667H13.3332V12.1983L9.609 16.6667ZM14.9998 11.6667V4.16667H16.6665L16.6673 11.6667H14.9998Z" fill="#88C507"/>
</svg>
