<svg width="20" height="20" viewBox="0 0 20 20" fill="none" xmlns="http://www.w3.org/2000/svg">
<path d="M16.6665 6.66663H11.9898L12.9257 3.86079C13.094 3.35413 13.009 2.79246 12.6965 2.35913C12.384 1.92579 11.8773 1.66663 11.3432 1.66663H9.99984C9.75234 1.66663 9.51817 1.77663 9.359 1.96663L5.44234 6.66663H3.33317C2.414 6.66663 1.6665 7.41413 1.6665 8.33329V15.8333C1.6665 16.7525 2.414 17.5 3.33317 17.5H14.4223C14.7614 17.4988 15.0922 17.3948 15.3709 17.2017C15.6495 17.0086 15.8631 16.7354 15.9832 16.4183L18.2807 10.2925C18.3156 10.1989 18.3333 10.0998 18.3332 9.99996V8.33329C18.3332 7.41413 17.5857 6.66663 16.6665 6.66663ZM3.33317 8.33329H4.99984V15.8333H3.33317V8.33329ZM16.6665 9.84913L14.4223 15.8333H6.6665V7.80163L10.3898 3.33329H11.3448L10.0432 7.23579C10.0009 7.36106 9.98913 7.49459 10.0088 7.62532C10.0284 7.75604 10.079 7.8802 10.1562 7.98749C10.2335 8.09479 10.3351 8.18212 10.4529 8.24226C10.5706 8.3024 10.701 8.33361 10.8332 8.33329H16.6665V9.84913Z" fill="#2291F8"/>
</svg>
