<svg width="104" height="80" viewBox="0 0 104 80" fill="none" xmlns="http://www.w3.org/2000/svg">
<rect width="104" height="80" fill="#E9F4FE"/>
<path d="M58 38C56.89 38 56 38.89 56 40C56 40.5304 56.2107 41.0391 56.5858 41.4142C56.9609 41.7893 57.4696 42 58 42C58.5304 42 59.0391 41.7893 59.4142 41.4142C59.7893 41.0391 60 40.5304 60 40C60 39.4696 59.7893 38.9609 59.4142 38.5858C59.0391 38.2107 58.5304 38 58 38ZM42 22V24H44L47.6 31.59L46.24 34.04C46.09 34.32 46 34.65 46 35C46 35.5304 46.2107 36.0391 46.5858 36.4142C46.9609 36.7893 47.4696 37 48 37H60V35H48.42C48.3537 35 48.2901 34.9737 48.2432 34.9268C48.1963 34.8799 48.17 34.8163 48.17 34.75C48.17 34.7 48.18 34.66 48.2 34.63L49.1 33H56.55C57.3 33 57.96 32.58 58.3 31.97L61.88 25.5C61.95 25.34 62 25.17 62 25C62 24.7348 61.8946 24.4804 61.7071 24.2929C61.5196 24.1054 61.2652 24 61 24H46.21L45.27 22M48 38C46.89 38 46 38.89 46 40C46 40.5304 46.2107 41.0391 46.5858 41.4142C46.9609 41.7893 47.4696 42 48 42C48.5304 42 49.0391 41.7893 49.4142 41.4142C49.7893 41.0391 50 40.5304 50 40C50 39.4696 49.7893 38.9609 49.4142 38.5858C49.0391 38.2107 48.5304 38 48 38Z" fill="#2C2C2C"/>
<path d="M44.7291 62.168C42.5331 62.168 40.9011 60.464 40.9011 57.608C40.9011 54.776 42.5691 53.048 44.8011 53.048C45.8691 53.048 46.6971 53.564 47.2131 54.128L46.6011 54.848C46.1451 54.356 45.5571 54.02 44.8131 54.02C43.1451 54.02 42.0411 55.388 42.0411 57.584C42.0411 59.804 43.0971 61.184 44.7771 61.184C45.6051 61.184 46.2531 60.824 46.8171 60.2L47.4171 60.896C46.7211 61.712 45.8691 62.168 44.7291 62.168ZM50.4614 62.168C49.3694 62.168 48.5534 61.484 48.5534 60.308C48.5534 58.892 49.7774 58.184 52.5494 57.872C52.5494 57.032 52.2854 56.228 51.2174 56.228C50.4494 56.228 49.7654 56.588 49.2614 56.936L48.8294 56.168C49.4294 55.784 50.3414 55.328 51.3854 55.328C52.9814 55.328 53.6534 56.384 53.6534 58.004V62H52.7534L52.6574 61.232H52.6094C51.9974 61.748 51.2654 62.168 50.4614 62.168ZM50.7614 61.28C51.3974 61.28 51.9254 60.98 52.5494 60.416V58.604C50.3534 58.856 49.6214 59.396 49.6214 60.236C49.6214 60.98 50.1254 61.28 50.7614 61.28ZM55.7231 62V55.484H56.6111L56.7191 56.672H56.7551C57.1991 55.844 57.8711 55.328 58.6031 55.328C58.8911 55.328 59.0831 55.364 59.2991 55.46L59.0951 56.42C58.8671 56.348 58.7231 56.312 58.4591 56.312C57.9191 56.312 57.2471 56.708 56.8151 57.824V62H55.7231ZM62.4155 62.168C61.0235 62.168 60.5675 61.292 60.5675 59.996V56.372H59.5955V55.556L60.6155 55.484L60.7355 53.648H61.6595V55.484H63.4235V56.372H61.6595V60.02C61.6595 60.812 61.9115 61.28 62.6675 61.28C62.8955 61.28 63.1955 61.184 63.3995 61.1L63.6155 61.916C63.2555 62.048 62.8235 62.168 62.4155 62.168Z" fill="#2C2C2C"/>
</svg>
