<svg width="24" height="24" viewBox="0 0 24 24" fill="none" xmlns="http://www.w3.org/2000/svg">
<path d="M19.03 11.12C19.06 11.39 19.08 11.67 19.08 11.95C19.08 15.83 15.92 18.99 12.04 18.99C8.16 18.99 5 15.83 5 11.95C5 8.06997 8.16 4.90997 12.04 4.90997C12.32 4.90997 12.6 4.92997 12.87 4.95997C12.97 4.67997 13.12 4.41997 13.34 4.19997L14.33 3.20997C13.6 3.01997 12.83 2.90997 12.04 2.90997C7.05 2.90997 3 6.95997 3 11.95C3 16.94 7.05 20.99 12.04 20.99C17.03 20.99 21.08 16.94 21.08 11.95C21.08 11.16 20.97 10.39 20.78 9.65997L19.79 10.65C19.58 10.86 19.31 11.02 19.03 11.12Z" fill="#2291F8"/>
<path d="M15.42 11.41C15.45 11.59 15.47 11.76 15.47 11.95C15.47 13.84 13.93 15.37 12.05 15.37C10.17 15.37 8.63 13.83 8.63 11.95C8.63 10.07 10.17 8.52997 12.05 8.52997C12.23 8.52997 12.41 8.55997 12.59 8.57997L12.76 8.40997V6.57997C12.53 6.54997 12.29 6.52997 12.05 6.52997C9.06 6.52997 6.63 8.95997 6.63 11.95C6.63 14.94 9.06 17.37 12.05 17.37C15.04 17.37 17.47 14.94 17.47 11.95C17.47 11.71 17.45 11.47 17.42 11.24H15.59L15.42 11.41Z" fill="#2291F8"/>
<path d="M22.91 5.24C22.76 4.87 22.39 4.62 21.99 4.62H19.38V2.01C19.38 1.61 19.14 1.24 18.76 1.09C18.39 0.929997 17.96 1.02 17.67 1.31L15.41 3.57L14.06 4.92C13.99 4.99 13.94 5.08 13.89 5.17C13.81 5.31 13.76 5.47 13.76 5.63V8.83L13.64 8.95L11.34 11.25C10.95 11.64 10.95 12.27 11.34 12.66C11.54 12.86 11.79 12.95 12.05 12.95C12.31 12.95 12.56 12.85 12.76 12.66L15.06 10.36L15.18 10.24H18.38C18.54 10.24 18.7 10.19 18.84 10.11C18.93 10.06 19.02 10.02 19.09 9.94L20.44 8.59L22.7 6.33C22.99 6.04 23.07 5.61 22.92 5.24H22.91ZM17.99 8.2L17.96 8.23H15.76V6.03L15.79 6L17.23 4.56L17.37 4.42V5.62C17.37 6.17 17.82 6.62 18.37 6.62H19.57L19.43 6.76L17.99 8.2Z" fill="#2291F8"/>
</svg>
