<svg width="24" height="24" viewBox="0 0 24 24" fill="none" xmlns="http://www.w3.org/2000/svg">
<path d="M22.92 5.23999C22.77 4.86999 22.4 4.61999 22 4.61999H19.38V1.99999C19.38 1.59999 19.14 1.22999 18.76 1.07999C18.39 0.919988 17.96 1.00999 17.67 1.29999L14.05 4.91999C13.86 5.10999 13.76 5.35999 13.76 5.62999V8.83999L11.34 11.26C10.95 11.65 10.95 12.28 11.34 12.67C11.54 12.87 11.79 12.96 12.05 12.96C12.31 12.96 12.56 12.86 12.76 12.67L15.18 10.25H18.39C18.66 10.25 18.91 10.14 19.1 9.95999L22.72 6.33999C23.01 6.04999 23.09 5.61999 22.94 5.24999L22.92 5.23999Z" fill="#2291F8"/>
<path d="M15.59 11.24L13.46 13.37C13.07 13.76 12.56 13.96 12.05 13.96C11.54 13.96 11.03 13.76 10.64 13.37C9.86 12.59 9.86 11.32 10.64 10.54L12.77 8.40999V7.49999C12.54 7.45999 12.3 7.42999 12.06 7.42999C9.56 7.42999 7.54 9.45999 7.54 11.95C7.54 14.44 9.57 16.47 12.06 16.47C14.55 16.47 16.58 14.44 16.58 11.95C16.58 11.71 16.55 11.47 16.51 11.24H15.6H15.59Z" fill="#2291F8"/>
<path d="M19.79 10.65C19.41 11.03 18.91 11.24 18.38 11.24H18.05C18.08 11.47 18.1 11.71 18.1 11.95C18.1 15.28 15.39 18 12.05 18C8.71 18 6 15.29 6 11.95C6 8.61003 8.71 5.90002 12.05 5.90002C12.29 5.90002 12.53 5.92003 12.76 5.95003V5.62003C12.76 5.09003 12.97 4.58002 13.35 4.21002L14.35 3.21002C13.62 3.02002 12.85 2.90002 12.05 2.90002C7.05 2.90002 3 6.95003 3 11.95C3 16.95 7.05 21 12.05 21C17.05 21 21.1 16.95 21.1 11.95C21.1 11.16 20.99 10.39 20.79 9.65003L19.79 10.65Z" fill="#2291F8"/>
</svg>
