<svg width="24" height="24" viewBox="0 0 24 24" fill="none" xmlns="http://www.w3.org/2000/svg">
<path d="M11 16.2C10.74 16.2 10.49 16.1 10.29 15.91L7.29 12.91C6.9 12.52 6.9 11.89 7.29 11.5C7.68 11.11 8.31 11.11 8.7 11.5L10.99 13.79L15.28 9.50002C15.67 9.11002 16.3 9.11002 16.69 9.50002C17.08 9.89002 17.08 10.52 16.69 10.91L11.69 15.91C11.49 16.11 11.24 16.2 10.98 16.2H11Z" fill="#2C2C2C"/>
<path d="M12 4.20001C16.41 4.20001 20 7.79001 20 12.2C20 16.61 16.41 20.2 12 20.2C7.59 20.2 4 16.61 4 12.2C4 7.79001 7.59 4.20001 12 4.20001ZM12 2.20001C6.48 2.20001 2 6.68001 2 12.2C2 17.72 6.48 22.2 12 22.2C17.52 22.2 22 17.72 22 12.2C22 6.68001 17.52 2.20001 12 2.20001Z" fill="#2C2C2C"/>
</svg>
