<svg width="24" height="24" viewBox="0 0 24 24" fill="none" xmlns="http://www.w3.org/2000/svg">
<path d="M15.67 15H8.5C7.12 15 6 13.88 6 12.5V8H4.5C3.67 8 3 8.67 3 9.5V20C3 20.41 3.47 20.65 3.8 20.4L7 18H14.5C15.33 18 16 17.33 16 16.5V15.25L15.67 15Z" fill="#2291F8"/>
<path d="M19 2C17.34 2 16 3.34 16 5C16 6.66 17.34 8 19 8C20.66 8 22 6.66 22 5C22 3.34 20.66 2 19 2Z" fill="#2291F8"/>
<path d="M19 8.98999C16.8 8.98999 15 7.19999 15 4.98999C15 4.63999 15.06 4.30999 15.14 3.98999H8.49001C7.66001 3.98999 6.99001 4.65999 6.99001 5.48999V12.49C6.99001 13.32 7.66001 13.99 8.49001 13.99H15.99L19.19 16.39C19.28 16.46 19.39 16.49 19.49 16.49C19.75 16.49 19.99 16.29 19.99 15.99V8.83999C19.67 8.91999 19.34 8.97999 18.99 8.97999L19 8.98999Z" fill="#2291F8"/>
</svg>
