<svg width="24" height="24" viewBox="0 0 24 24" fill="none" xmlns="http://www.w3.org/2000/svg">
<path d="M15.67 15H14.5V16.5H6.5L6.1 16.8L4.5 18V9.5H6V8H4.5C3.67 8 3 8.67 3 9.5V20C3 20.3 3.24 20.5 3.5 20.5C3.6 20.5 3.71 20.47 3.8 20.4L7 18H14.5C15.33 18 16 17.33 16 16.5V15.25L15.67 15Z" fill="#2291F8"/>
<path d="M19 8.99C18.83 8.99 18.66 8.96 18.5 8.94V14L16.9 12.8L16.5 12.5H8.5V5.5H15.06C15.04 5.33 15.01 5.17 15.01 5C15.01 4.65 15.07 4.32 15.15 4H8.5C7.67 4 7 4.67 7 5.5V12.5C7 13.33 7.67 14 8.5 14H16L19.2 16.4C19.29 16.47 19.4 16.5 19.5 16.5C19.76 16.5 20 16.3 20 16V8.85C19.68 8.93 19.35 8.99 19 8.99Z" fill="#2291F8"/>
<path d="M19 2C17.34 2 16 3.34 16 5C16 6.66 17.34 8 19 8C20.66 8 22 6.66 22 5C22 3.34 20.66 2 19 2ZM19 6.5C18.17 6.5 17.5 5.83 17.5 5C17.5 4.17 18.17 3.5 19 3.5C19.83 3.5 20.5 4.17 20.5 5C20.5 5.83 19.83 6.5 19 6.5Z" fill="#2291F8"/>
</svg>
