<svg width="24" height="24" viewBox="0 0 24 24" fill="none" xmlns="http://www.w3.org/2000/svg">
<path d="M13.41 12.05L18.7 6.75999C19.09 6.36999 19.09 5.74 18.7 5.35C18.31 4.96 17.68 4.96 17.29 5.35L12 10.64L6.71 5.35C6.32 4.96 5.69001 4.96 5.30001 5.35C4.91001 5.74 4.91001 6.36999 5.30001 6.75999L10.59 12.05L5.30001 17.34C4.91001 17.73 4.91001 18.36 5.30001 18.75C5.50001 18.95 5.75001 19.04 6.01001 19.04C6.27001 19.04 6.52001 18.94 6.72001 18.75L12.01 13.46L17.3 18.75C17.5 18.95 17.75 19.04 18.01 19.04C18.27 19.04 18.52 18.94 18.72 18.75C19.11 18.36 19.11 17.73 18.72 17.34L13.43 12.05H13.41Z" fill="#2C2C2C"/>
</svg>
