<svg width="24" height="25" viewBox="0 0 24 25" fill="none" xmlns="http://www.w3.org/2000/svg">
<path d="M19 20.15H5C3.9 20.15 3 19.25 3 18.15V14.65C3 14.1 3.45 13.65 4 13.65C4.55 13.65 5 14.1 5 14.65V18.15H19V14.65C19 14.1 19.45 13.65 20 13.65C20.55 13.65 21 14.1 21 14.65V18.15C21 19.25 20.1 20.15 19 20.15Z" fill="#2C2C2C"/>
<path d="M16.71 10.44C16.32 10.05 15.69 10.05 15.3 10.44L13.01 12.73V5.14001C13.01 4.59001 12.56 4.14001 12.01 4.14001C11.46 4.14001 11.01 4.59001 11.01 5.14001V12.73L8.71999 10.44C8.32999 10.05 7.69999 10.05 7.30999 10.44C6.91999 10.83 6.91999 11.46 7.30999 11.85L11.31 15.85C11.51 16.05 11.76 16.14 12.02 16.14C12.28 16.14 12.53 16.04 12.73 15.85L16.73 11.85C17.12 11.46 17.12 10.83 16.73 10.44H16.71Z" fill="#2C2C2C"/>
</svg>
