<svg width="24" height="25" viewBox="0 0 24 25" fill="none" xmlns="http://www.w3.org/2000/svg">
<path d="M14.57 21.05H5.42C4.09 21.05 3 19.97 3 18.63V9.48C3 8.15 4.08 7.06 5.42 7.06H9C9.55 7.06 10 7.51 10 8.06C10 8.61 9.55 9.06 9 9.06H5.42C5.19 9.06 5 9.25 5 9.48V18.63C5 18.86 5.19 19.05 5.42 19.05H14.57C14.8 19.05 14.99 18.86 14.99 18.63V15.05C14.99 14.5 15.44 14.05 15.99 14.05C16.54 14.05 16.99 14.5 16.99 15.05V18.63C16.99 19.96 15.91 21.05 14.57 21.05Z" fill="#2C2C2C"/>
<path d="M21.08 4.99996L19.08 2.99996C18.8 2.71996 18.44 2.57996 18.08 2.57996C17.72 2.57996 17.35 2.71996 17.08 2.99996L15.75 4.32996H15.74L14.32 5.72996L14.34 5.74996L8.45 11.64C8.18 11.91 8.03 12.27 8.03 12.64V14.64C8.03 15.42 8.66 16.06 9.45 16.06H11.45C11.83 16.06 12.19 15.91 12.45 15.64L21.08 7.00996C21.63 6.45996 21.63 5.55996 21.08 5.00996V4.99996ZM18.08 4.82996L19.25 5.99996L18.32 6.92996L17.15 5.74996L18.07 4.82996H18.08ZM11.2 14.05H10.03V12.88L15.74 7.16996L16.91 8.34996L11.2 14.06V14.05Z" fill="#2C2C2C"/>
</svg>
