<svg width="16" height="16" viewBox="0 0 16 16" fill="none" xmlns="http://www.w3.org/2000/svg">
<path d="M5.29279 1.63599C5.10532 1.82351 5 2.07782 5 2.34299C5 2.60815 5.10532 2.86246 5.29279 3.04999L10.2428 7.99999L5.29279 12.95C5.11063 13.1386 5.00983 13.3912 5.01211 13.6534C5.01439 13.9156 5.11956 14.1664 5.30497 14.3518C5.49038 14.5372 5.74119 14.6424 6.00338 14.6447C6.26558 14.6469 6.51818 14.5461 6.70679 14.364L12.3638 8.70699C12.5513 8.51946 12.6566 8.26515 12.6566 7.99999C12.6566 7.73482 12.5513 7.48052 12.3638 7.29299L6.70679 1.63599C6.51926 1.44852 6.26495 1.3432 5.99979 1.3432C5.73462 1.3432 5.48031 1.44852 5.29279 1.63599Z" fill="#9E9E9E"/>
</svg>
