<svg width="141" height="20" viewBox="0 0 141 20" fill="none" xmlns="http://www.w3.org/2000/svg">
<path d="M0 0.2948H13.9678V6.78274H7.98926V7.82832H12.815V12.4396H7.98926V13.5388H14.3432V19.705H0V0.2948Z" fill="#2291F8"/>
<path d="M16.3804 11.8231C18.9809 13.5121 21.6083 14.1287 22.7611 14.1287C23.5654 14.1287 23.753 13.807 23.753 13.4853C23.753 13.1099 23.5118 12.9491 23.1632 12.8686C22.2249 12.6273 19.5171 12.3324 17.5332 10.5898C16.5144 9.67829 15.8174 8.41822 15.8174 6.54155C15.8174 2.65415 18.8201 0 23.7262 0C26.0855 0 28.8737 0.616625 30.6431 1.52815V7.88203C28.123 6.62198 25.7638 6.16622 24.7718 6.16622C23.9943 6.16622 23.7798 6.46113 23.7798 6.75604C23.7798 7.15818 24.0748 7.31904 24.3965 7.42628C25.2008 7.66757 27.8817 7.98927 29.7852 9.49061C31.0989 10.563 31.7423 11.9303 31.7423 13.6729C31.7423 17.3995 28.7396 20 23.6458 20C21.2061 20 18.2839 19.4102 16.3804 18.4182V11.8231Z" fill="#2291F8"/>
<path d="M32.9492 10.1609C32.9492 4.31635 37.7481 0 44.531 0C47.1047 0 49.464 0.616625 50.9921 1.39411V8.0429C49.4371 7.37266 47.0243 6.72922 45.228 6.72922C42.3862 6.72922 40.9117 8.33779 40.9117 10.4289C40.9117 12.7078 42.7079 14.0751 44.665 14.0751C45.0404 14.0751 45.3085 14.0214 45.4693 13.9678V12.9759H43.539V8.63271H51.4747V18.2306C50.0538 19.1153 47.5337 20 44.3433 20C37.346 20 32.9492 15.7373 32.9492 10.1609Z" fill="#2291F8"/>
<path d="M61.77 0.2948H69.2231L73.0837 5.17416L76.8102 0.2948H84.0488V19.705H76.0596V10.2412H76.0059L72.5475 14.7988L69.0086 10.2412H68.955V19.705H61.77V0.2948Z" fill="#2291F8"/>
<path d="M92.7876 0.2948H100.428L107.828 19.705H99.1952L98.5249 17.1581H94.0745L93.3238 19.705H85.3882L92.7876 0.2948ZM97.238 12.2787L96.3801 8.3377H96.3265L95.4686 12.2787H97.238Z" fill="#2291F8"/>
<path d="M110.831 6.88999H105.415V0.2948H124.235V6.88999H118.82V19.705H110.831V6.88999Z" fill="#2291F8"/>
<path d="M126.327 0.2948H140.295V6.78274H134.316V7.82832H139.142V12.4396H134.316V13.5388H140.67V19.705H126.327V0.2948Z" fill="#2291F8"/>
</svg>
