<svg width="104" height="80" viewBox="0 0 104 80" fill="none" xmlns="http://www.w3.org/2000/svg">
<rect width="104" height="80" fill="#E9F4FE"/>
<path d="M62.5 28.8125C62.5 35.375 52.7697 40.6869 52.3553 40.9062C52.2461 40.965 52.124 40.9958 52 40.9958C51.876 40.9958 51.7539 40.965 51.6447 40.9062C51.2303 40.6869 41.5 35.375 41.5 28.8125C41.5017 27.2715 42.1147 25.794 43.2044 24.7044C44.294 23.6147 45.7715 23.0017 47.3125 23C49.2484 23 50.9434 23.8325 52 25.2397C53.0566 23.8325 54.7516 23 56.6875 23C58.2285 23.0017 59.706 23.6147 60.7956 24.7044C61.8853 25.794 62.4983 27.2715 62.5 28.8125Z" fill="#2C2C2C"/>
<path d="M28.2586 62V53.204H33.3226V54.14H29.3746V57.128H32.7226V58.052H29.3746V62H28.2586ZM35.8032 62.168C34.7112 62.168 33.8952 61.484 33.8952 60.308C33.8952 58.892 35.1192 58.184 37.8912 57.872C37.8912 57.032 37.6272 56.228 36.5592 56.228C35.7912 56.228 35.1072 56.588 34.6032 56.936L34.1712 56.168C34.7712 55.784 35.6832 55.328 36.7272 55.328C38.3232 55.328 38.9952 56.384 38.9952 58.004V62H38.0952L37.9992 61.232H37.9512C37.3392 61.748 36.6072 62.168 35.8032 62.168ZM36.1032 61.28C36.7392 61.28 37.2672 60.98 37.8912 60.416V58.604C35.6952 58.856 34.9632 59.396 34.9632 60.236C34.9632 60.98 35.4672 61.28 36.1032 61.28ZM42.4689 62L40.1169 55.484H41.2449L42.4809 59.204C42.6729 59.84 42.8769 60.5 43.0809 61.112H43.1289C43.3329 60.5 43.5369 59.84 43.7289 59.204L44.9769 55.484H46.0449L43.7409 62H42.4689ZM49.7727 62.168C48.1647 62.168 46.7487 60.908 46.7487 58.76C46.7487 56.576 48.1647 55.328 49.7727 55.328C51.3687 55.328 52.7847 56.576 52.7847 58.76C52.7847 60.908 51.3687 62.168 49.7727 62.168ZM49.7727 61.256C50.9007 61.256 51.6567 60.248 51.6567 58.76C51.6567 57.248 50.9007 56.24 49.7727 56.24C48.6327 56.24 47.8767 57.248 47.8767 58.76C47.8767 60.248 48.6327 61.256 49.7727 61.256ZM54.5181 62V55.484H55.4061L55.5141 56.672H55.5501C55.9941 55.844 56.6661 55.328 57.3981 55.328C57.6861 55.328 57.8781 55.364 58.0941 55.46L57.8901 56.42C57.6621 56.348 57.5181 56.312 57.2541 56.312C56.7141 56.312 56.0421 56.708 55.6101 57.824V62H54.5181ZM59.1704 62V55.484H60.2624V62H59.1704ZM59.7224 54.14C59.2904 54.14 58.9904 53.864 58.9904 53.408C58.9904 52.988 59.2904 52.712 59.7224 52.712C60.1424 52.712 60.4544 52.988 60.4544 53.408C60.4544 53.864 60.1424 54.14 59.7224 54.14ZM64.5151 62.168C63.1231 62.168 62.6671 61.292 62.6671 59.996V56.372H61.6951V55.556L62.7151 55.484L62.8351 53.648H63.7591V55.484H65.5231V56.372H63.7591V60.02C63.7591 60.812 64.0111 61.28 64.7671 61.28C64.9951 61.28 65.2951 61.184 65.4991 61.1L65.7151 61.916C65.3551 62.048 64.9231 62.168 64.5151 62.168ZM69.4156 62.168C67.6756 62.168 66.2956 60.896 66.2956 58.76C66.2956 56.636 67.7236 55.328 69.2236 55.328C70.8796 55.328 71.8156 56.516 71.8156 58.388C71.8156 58.616 71.8036 58.844 71.7676 59.012H67.3756C67.4596 60.392 68.2996 61.292 69.5476 61.292C70.1716 61.292 70.6876 61.088 71.1676 60.764L71.5636 61.496C70.9876 61.868 70.3036 62.168 69.4156 62.168ZM67.3636 58.22H70.8556C70.8556 56.912 70.2676 56.204 69.2356 56.204C68.3236 56.204 67.5076 56.936 67.3636 58.22ZM75.1361 62.168C74.2121 62.168 73.3121 61.772 72.7001 61.268L73.2401 60.536C73.8041 60.992 74.3801 61.316 75.1601 61.316C76.0241 61.316 76.4561 60.86 76.4561 60.284C76.4561 59.624 75.6761 59.324 74.9561 59.06C74.0561 58.712 73.0601 58.28 73.0601 57.164C73.0601 56.132 73.8881 55.328 75.3041 55.328C76.1081 55.328 76.8281 55.652 77.3321 56.06L76.8041 56.756C76.3601 56.432 75.8921 56.18 75.3161 56.18C74.4881 56.18 74.1161 56.612 74.1161 57.116C74.1161 57.74 74.7761 57.98 75.5201 58.244C76.4681 58.604 77.5001 58.988 77.5001 60.224C77.5001 61.292 76.6721 62.168 75.1361 62.168Z" fill="#2C2C2C"/>
</svg>
