<svg width="116" height="36" viewBox="0 0 116 36" fill="none" xmlns="http://www.w3.org/2000/svg">
<rect width="116" height="36" rx="18" fill="#2291F8"/>
<path d="M23.8574 17.6406V20.8984C23.7363 21.0586 23.5469 21.2344 23.2891 21.4258C23.0352 21.6133 22.6973 21.7754 22.2754 21.9121C21.8535 22.0488 21.3281 22.1172 20.6992 22.1172C20.1641 22.1172 19.6738 22.0273 19.2285 21.8477C18.7832 21.6641 18.3984 21.3965 18.0742 21.0449C17.7539 20.6934 17.5059 20.2656 17.3301 19.7617C17.1543 19.2539 17.0664 18.6758 17.0664 18.0273V17.4355C17.0664 16.791 17.1465 16.2168 17.3066 15.7129C17.4707 15.2051 17.7051 14.7754 18.0098 14.4238C18.3145 14.0723 18.6816 13.8066 19.1113 13.627C19.5449 13.4434 20.0352 13.3516 20.582 13.3516C21.2812 13.3516 21.8594 13.4688 22.3164 13.7031C22.7773 13.9336 23.1328 14.2539 23.3828 14.6641C23.6328 15.0742 23.791 15.543 23.8574 16.0703H22.416C22.3691 15.7734 22.2773 15.5078 22.1406 15.2734C22.0078 15.0391 21.8164 14.8555 21.5664 14.7227C21.3203 14.5859 21 14.5176 20.6055 14.5176C20.2656 14.5176 19.9668 14.582 19.709 14.7109C19.4512 14.8398 19.2363 15.0293 19.0645 15.2793C18.8965 15.5293 18.7695 15.834 18.6836 16.1934C18.5977 16.5527 18.5547 16.9629 18.5547 17.4238V18.0273C18.5547 18.4961 18.6035 18.9121 18.7012 19.2754C18.8027 19.6387 18.9473 19.9453 19.1348 20.1953C19.3262 20.4453 19.5586 20.6348 19.832 20.7637C20.1055 20.8887 20.4141 20.9512 20.7578 20.9512C21.0938 20.9512 21.3691 20.9238 21.584 20.8691C21.7988 20.8105 21.9688 20.7422 22.0938 20.6641C22.2227 20.582 22.3223 20.5039 22.3926 20.4297V18.7363H20.6172V17.6406H23.8574ZM25.0762 18.9004V18.7656C25.0762 18.3086 25.1426 17.8848 25.2754 17.4941C25.4082 17.0996 25.5996 16.7578 25.8496 16.4688C26.1035 16.1758 26.4121 15.9492 26.7754 15.7891C27.1426 15.625 27.5566 15.543 28.0176 15.543C28.4824 15.543 28.8965 15.625 29.2598 15.7891C29.627 15.9492 29.9375 16.1758 30.1914 16.4688C30.4453 16.7578 30.6387 17.0996 30.7715 17.4941C30.9043 17.8848 30.9707 18.3086 30.9707 18.7656V18.9004C30.9707 19.3574 30.9043 19.7812 30.7715 20.1719C30.6387 20.5625 30.4453 20.9043 30.1914 21.1973C29.9375 21.4863 29.6289 21.7129 29.2656 21.877C28.9023 22.0371 28.4902 22.1172 28.0293 22.1172C27.5645 22.1172 27.1484 22.0371 26.7812 21.877C26.418 21.7129 26.1094 21.4863 25.8555 21.1973C25.6016 20.9043 25.4082 20.5625 25.2754 20.1719C25.1426 19.7812 25.0762 19.3574 25.0762 18.9004ZM26.4883 18.7656V18.9004C26.4883 19.1855 26.5176 19.4551 26.5762 19.709C26.6348 19.9629 26.7266 20.1855 26.8516 20.377C26.9766 20.5684 27.1367 20.7188 27.332 20.8281C27.5273 20.9375 27.7598 20.9922 28.0293 20.9922C28.291 20.9922 28.5176 20.9375 28.709 20.8281C28.9043 20.7188 29.0645 20.5684 29.1895 20.377C29.3145 20.1855 29.4062 19.9629 29.4648 19.709C29.5273 19.4551 29.5586 19.1855 29.5586 18.9004V18.7656C29.5586 18.4844 29.5273 18.2188 29.4648 17.9688C29.4062 17.7148 29.3125 17.4902 29.1836 17.2949C29.0586 17.0996 28.8984 16.9473 28.7031 16.8379C28.5117 16.7246 28.2832 16.668 28.0176 16.668C27.752 16.668 27.5215 16.7246 27.3262 16.8379C27.1348 16.9473 26.9766 17.0996 26.8516 17.2949C26.7266 17.4902 26.6348 17.7148 26.5762 17.9688C26.5176 18.2188 26.4883 18.4844 26.4883 18.7656ZM38.0488 15.6602V16.6914H34.4746V15.6602H38.0488ZM35.5059 14.1074H36.918V20.248C36.918 20.4434 36.9453 20.5938 37 20.6992C37.0586 20.8008 37.1387 20.8691 37.2402 20.9043C37.3418 20.9395 37.4609 20.957 37.5977 20.957C37.6953 20.957 37.7891 20.9512 37.8789 20.9395C37.9688 20.9277 38.041 20.916 38.0957 20.9043L38.1016 21.9824C37.9844 22.0176 37.8477 22.0488 37.6914 22.0762C37.5391 22.1035 37.3633 22.1172 37.1641 22.1172C36.8398 22.1172 36.5527 22.0605 36.3027 21.9473C36.0527 21.8301 35.8574 21.6406 35.7168 21.3789C35.5762 21.1172 35.5059 20.7695 35.5059 20.3359V14.1074ZM38.7285 18.9004V18.7656C38.7285 18.3086 38.7949 17.8848 38.9277 17.4941C39.0605 17.0996 39.252 16.7578 39.502 16.4688C39.7559 16.1758 40.0645 15.9492 40.4277 15.7891C40.7949 15.625 41.209 15.543 41.6699 15.543C42.1348 15.543 42.5488 15.625 42.9121 15.7891C43.2793 15.9492 43.5898 16.1758 43.8438 16.4688C44.0977 16.7578 44.291 17.0996 44.4238 17.4941C44.5566 17.8848 44.623 18.3086 44.623 18.7656V18.9004C44.623 19.3574 44.5566 19.7812 44.4238 20.1719C44.291 20.5625 44.0977 20.9043 43.8438 21.1973C43.5898 21.4863 43.2812 21.7129 42.918 21.877C42.5547 22.0371 42.1426 22.1172 41.6816 22.1172C41.2168 22.1172 40.8008 22.0371 40.4336 21.877C40.0703 21.7129 39.7617 21.4863 39.5078 21.1973C39.2539 20.9043 39.0605 20.5625 38.9277 20.1719C38.7949 19.7812 38.7285 19.3574 38.7285 18.9004ZM40.1406 18.7656V18.9004C40.1406 19.1855 40.1699 19.4551 40.2285 19.709C40.2871 19.9629 40.3789 20.1855 40.5039 20.377C40.6289 20.5684 40.7891 20.7188 40.9844 20.8281C41.1797 20.9375 41.4121 20.9922 41.6816 20.9922C41.9434 20.9922 42.1699 20.9375 42.3613 20.8281C42.5566 20.7188 42.7168 20.5684 42.8418 20.377C42.9668 20.1855 43.0586 19.9629 43.1172 19.709C43.1797 19.4551 43.2109 19.1855 43.2109 18.9004V18.7656C43.2109 18.4844 43.1797 18.2188 43.1172 17.9688C43.0586 17.7148 42.9648 17.4902 42.8359 17.2949C42.7109 17.0996 42.5508 16.9473 42.3555 16.8379C42.1641 16.7246 41.9355 16.668 41.6699 16.668C41.4043 16.668 41.1738 16.7246 40.9785 16.8379C40.7871 16.9473 40.6289 17.0996 40.5039 17.2949C40.3789 17.4902 40.2871 17.7148 40.2285 17.9688C40.1699 18.2188 40.1406 18.4844 40.1406 18.7656ZM53.4238 19.8027C53.4238 19.627 53.3965 19.4707 53.3418 19.334C53.291 19.1973 53.1992 19.0723 53.0664 18.959C52.9336 18.8457 52.7461 18.7363 52.5039 18.6309C52.2656 18.5215 51.9609 18.4102 51.5898 18.2969C51.1836 18.1719 50.8086 18.0332 50.4648 17.8809C50.125 17.7246 49.8281 17.5449 49.5742 17.3418C49.3203 17.1348 49.123 16.8984 48.9824 16.6328C48.8418 16.3633 48.7715 16.0527 48.7715 15.7012C48.7715 15.3535 48.8438 15.0371 48.9883 14.752C49.1367 14.4668 49.3457 14.2207 49.6152 14.0137C49.8887 13.8027 50.2109 13.6406 50.582 13.5273C50.9531 13.4102 51.3633 13.3516 51.8125 13.3516C52.4453 13.3516 52.9902 13.4688 53.4473 13.7031C53.9082 13.9375 54.2617 14.252 54.5078 14.6465C54.7578 15.041 54.8828 15.4766 54.8828 15.9531H53.4238C53.4238 15.6719 53.3633 15.4238 53.2422 15.209C53.125 14.9902 52.9453 14.8184 52.7031 14.6934C52.4648 14.5684 52.1621 14.5059 51.7949 14.5059C51.4473 14.5059 51.1582 14.5586 50.9277 14.6641C50.6973 14.7695 50.5254 14.9121 50.4121 15.0918C50.2988 15.2715 50.2422 15.4746 50.2422 15.7012C50.2422 15.8613 50.2793 16.0078 50.3535 16.1406C50.4277 16.2695 50.541 16.3906 50.6934 16.5039C50.8457 16.6133 51.0371 16.7168 51.2676 16.8145C51.498 16.9121 51.7695 17.0059 52.082 17.0957C52.5547 17.2363 52.9668 17.3926 53.3184 17.5645C53.6699 17.7324 53.9629 17.9238 54.1973 18.1387C54.4316 18.3535 54.6074 18.5977 54.7246 18.8711C54.8418 19.1406 54.9004 19.4473 54.9004 19.791C54.9004 20.1504 54.8281 20.4746 54.6836 20.7637C54.5391 21.0488 54.332 21.293 54.0625 21.4961C53.7969 21.6953 53.4766 21.8496 53.1016 21.959C52.7305 22.0645 52.3164 22.1172 51.8594 22.1172C51.4492 22.1172 51.0449 22.0625 50.6465 21.9531C50.252 21.8438 49.8926 21.6777 49.5684 21.4551C49.2441 21.2285 48.9863 20.9473 48.7949 20.6113C48.6035 20.2715 48.5078 19.875 48.5078 19.4219H49.9785C49.9785 19.6992 50.0254 19.9355 50.1191 20.1309C50.2168 20.3262 50.3516 20.4863 50.5234 20.6113C50.6953 20.7324 50.8945 20.8223 51.1211 20.8809C51.3516 20.9395 51.5977 20.9688 51.8594 20.9688C52.2031 20.9688 52.4902 20.9199 52.7207 20.8223C52.9551 20.7246 53.1309 20.5879 53.248 20.4121C53.3652 20.2363 53.4238 20.0332 53.4238 19.8027ZM57.4551 13V22H56.0488V13H57.4551ZM57.209 18.5957L56.752 18.5898C56.7559 18.1523 56.8164 17.748 56.9336 17.377C57.0547 17.0059 57.2227 16.6836 57.4375 16.4102C57.6562 16.1328 57.918 15.9199 58.2227 15.7715C58.5273 15.6191 58.8652 15.543 59.2363 15.543C59.5488 15.543 59.8301 15.5859 60.0801 15.6719C60.334 15.7578 60.5527 15.8965 60.7363 16.0879C60.9199 16.2754 61.0586 16.5215 61.1523 16.8262C61.25 17.127 61.2988 17.4941 61.2988 17.9277V22H59.8809V17.916C59.8809 17.6113 59.8359 17.3691 59.7461 17.1895C59.6602 17.0098 59.5332 16.8809 59.3652 16.8027C59.1973 16.7207 58.9922 16.6797 58.75 16.6797C58.4961 16.6797 58.2715 16.7305 58.0762 16.832C57.8848 16.9336 57.7246 17.0723 57.5957 17.248C57.4668 17.4238 57.3691 17.627 57.3027 17.8574C57.2402 18.0879 57.209 18.334 57.209 18.5957ZM62.459 18.9004V18.7656C62.459 18.3086 62.5254 17.8848 62.6582 17.4941C62.791 17.0996 62.9824 16.7578 63.2324 16.4688C63.4863 16.1758 63.7949 15.9492 64.1582 15.7891C64.5254 15.625 64.9395 15.543 65.4004 15.543C65.8652 15.543 66.2793 15.625 66.6426 15.7891C67.0098 15.9492 67.3203 16.1758 67.5742 16.4688C67.8281 16.7578 68.0215 17.0996 68.1543 17.4941C68.2871 17.8848 68.3535 18.3086 68.3535 18.7656V18.9004C68.3535 19.3574 68.2871 19.7812 68.1543 20.1719C68.0215 20.5625 67.8281 20.9043 67.5742 21.1973C67.3203 21.4863 67.0117 21.7129 66.6484 21.877C66.2852 22.0371 65.873 22.1172 65.4121 22.1172C64.9473 22.1172 64.5312 22.0371 64.1641 21.877C63.8008 21.7129 63.4922 21.4863 63.2383 21.1973C62.9844 20.9043 62.791 20.5625 62.6582 20.1719C62.5254 19.7812 62.459 19.3574 62.459 18.9004ZM63.8711 18.7656V18.9004C63.8711 19.1855 63.9004 19.4551 63.959 19.709C64.0176 19.9629 64.1094 20.1855 64.2344 20.377C64.3594 20.5684 64.5195 20.7188 64.7148 20.8281C64.9102 20.9375 65.1426 20.9922 65.4121 20.9922C65.6738 20.9922 65.9004 20.9375 66.0918 20.8281C66.2871 20.7188 66.4473 20.5684 66.5723 20.377C66.6973 20.1855 66.7891 19.9629 66.8477 19.709C66.9102 19.4551 66.9414 19.1855 66.9414 18.9004V18.7656C66.9414 18.4844 66.9102 18.2188 66.8477 17.9688C66.7891 17.7148 66.6953 17.4902 66.5664 17.2949C66.4414 17.0996 66.2812 16.9473 66.0859 16.8379C65.8945 16.7246 65.666 16.668 65.4004 16.668C65.1348 16.668 64.9043 16.7246 64.709 16.8379C64.5176 16.9473 64.3594 17.0996 64.2344 17.2949C64.1094 17.4902 64.0176 17.7148 63.959 17.9688C63.9004 18.2188 63.8711 18.4844 63.8711 18.7656ZM70.9551 16.8789V24.4375H69.543V15.6602H70.8438L70.9551 16.8789ZM75.0859 18.7715V18.8945C75.0859 19.3555 75.0312 19.7832 74.9219 20.1777C74.8164 20.5684 74.6582 20.9102 74.4473 21.2031C74.2402 21.4922 73.9844 21.7168 73.6797 21.877C73.375 22.0371 73.0234 22.1172 72.625 22.1172C72.2305 22.1172 71.8848 22.0449 71.5879 21.9004C71.2949 21.752 71.0469 21.543 70.8438 21.2734C70.6406 21.0039 70.4766 20.6875 70.3516 20.3242C70.2305 19.957 70.1445 19.5547 70.0938 19.1172V18.6426C70.1445 18.1777 70.2305 17.7559 70.3516 17.377C70.4766 16.998 70.6406 16.6719 70.8438 16.3984C71.0469 16.125 71.2949 15.9141 71.5879 15.7656C71.8809 15.6172 72.2227 15.543 72.6133 15.543C73.0117 15.543 73.3652 15.6211 73.6738 15.7773C73.9824 15.9297 74.2422 16.1484 74.4531 16.4336C74.6641 16.7148 74.8223 17.0547 74.9277 17.4531C75.0332 17.8477 75.0859 18.2871 75.0859 18.7715ZM73.6738 18.8945V18.7715C73.6738 18.4785 73.6465 18.207 73.5918 17.957C73.5371 17.7031 73.4512 17.4805 73.334 17.2891C73.2168 17.0977 73.0664 16.9492 72.8828 16.8438C72.7031 16.7344 72.4863 16.6797 72.2324 16.6797C71.9824 16.6797 71.7676 16.7227 71.5879 16.8086C71.4082 16.8906 71.2578 17.0059 71.1367 17.1543C71.0156 17.3027 70.9219 17.4766 70.8555 17.6758C70.7891 17.8711 70.7422 18.084 70.7148 18.3145V19.4512C70.7617 19.7324 70.8418 19.9902 70.9551 20.2246C71.0684 20.459 71.2285 20.6465 71.4355 20.7871C71.6465 20.9238 71.916 20.9922 72.2441 20.9922C72.498 20.9922 72.7148 20.9375 72.8945 20.8281C73.0742 20.7188 73.2207 20.5684 73.334 20.377C73.4512 20.1816 73.5371 19.957 73.5918 19.7031C73.6465 19.4492 73.6738 19.1797 73.6738 18.8945Z" fill="white"/>
<path d="M91.9892 9.49944C91.8584 9.63339 91.7852 9.8132 91.7852 10.0004C91.7852 10.1877 91.8584 10.3675 91.9892 10.5014L99.2987 17.9999L91.9892 25.4969C91.8584 25.6309 91.7852 25.8107 91.7852 25.9979C91.7852 26.1852 91.8584 26.365 91.9892 26.4989C92.0528 26.5643 92.1289 26.6162 92.2129 26.6516C92.2968 26.6871 92.3871 26.7053 92.4782 26.7053C92.5694 26.7053 92.6596 26.6871 92.7436 26.6516C92.8276 26.6162 92.9036 26.5643 92.9672 26.4989L100.74 18.5234C100.877 18.3834 100.953 18.1955 100.953 17.9999C100.953 17.8044 100.877 17.6165 100.74 17.4764L92.9672 9.50094C92.9036 9.43563 92.8276 9.38371 92.7436 9.34827C92.6596 9.31282 92.5694 9.29456 92.4782 9.29456C92.3871 9.29456 92.2968 9.31282 92.2129 9.34827C92.1289 9.38371 92.0528 9.43563 91.9892 9.50094V9.49944Z" fill="white"/>
</svg>
