<svg width="328" height="20" viewBox="0 0 328 20" fill="none" xmlns="http://www.w3.org/2000/svg">
<rect width="328" height="20" rx="10" fill="#88C507"/>
<path d="M158.043 9.61621L157.32 9.43066L157.677 5.89062H161.324V6.72559H158.443L158.229 8.65918C158.359 8.58431 158.523 8.51432 158.722 8.44922C158.924 8.38411 159.155 8.35156 159.415 8.35156C159.744 8.35156 160.038 8.40853 160.299 8.52246C160.559 8.63314 160.781 8.79264 160.963 9.00098C161.148 9.20931 161.29 9.45996 161.388 9.75293C161.485 10.0459 161.534 10.373 161.534 10.7344C161.534 11.0762 161.487 11.3903 161.393 11.6768C161.301 11.9632 161.163 12.2139 160.978 12.4287C160.792 12.6403 160.558 12.8047 160.274 12.9219C159.994 13.0391 159.664 13.0977 159.283 13.0977C158.997 13.0977 158.725 13.0586 158.468 12.9805C158.214 12.8991 157.986 12.777 157.784 12.6143C157.586 12.4482 157.423 12.2432 157.296 11.999C157.172 11.7516 157.094 11.4619 157.062 11.1299H157.921C157.96 11.3968 158.038 11.6214 158.155 11.8037C158.272 11.986 158.425 12.1243 158.614 12.2188C158.806 12.3099 159.029 12.3555 159.283 12.3555C159.498 12.3555 159.688 12.318 159.854 12.2432C160.021 12.1683 160.16 12.0609 160.274 11.9209C160.388 11.7809 160.475 11.6117 160.533 11.4131C160.595 11.2145 160.626 10.9915 160.626 10.7441C160.626 10.5195 160.595 10.3112 160.533 10.1191C160.471 9.92708 160.379 9.75944 160.255 9.61621C160.134 9.47298 159.986 9.3623 159.811 9.28418C159.635 9.2028 159.433 9.16211 159.205 9.16211C158.902 9.16211 158.673 9.2028 158.517 9.28418C158.364 9.36556 158.206 9.47624 158.043 9.61621ZM165.768 5.89062L162.804 13.6104H162.027L164.996 5.89062H165.768ZM167.799 9.61621L167.076 9.43066L167.433 5.89062H171.08V6.72559H168.199L167.984 8.65918C168.115 8.58431 168.279 8.51432 168.478 8.44922C168.679 8.38411 168.91 8.35156 169.171 8.35156C169.5 8.35156 169.794 8.40853 170.055 8.52246C170.315 8.63314 170.536 8.79264 170.719 9.00098C170.904 9.20931 171.046 9.45996 171.144 9.75293C171.241 10.0459 171.29 10.373 171.29 10.7344C171.29 11.0762 171.243 11.3903 171.148 11.6768C171.057 11.9632 170.919 12.2139 170.733 12.4287C170.548 12.6403 170.313 12.8047 170.03 12.9219C169.75 13.0391 169.42 13.0977 169.039 13.0977C168.753 13.0977 168.481 13.0586 168.224 12.9805C167.97 12.8991 167.742 12.777 167.54 12.6143C167.341 12.4482 167.179 12.2432 167.052 11.999C166.928 11.7516 166.85 11.4619 166.817 11.1299H167.677C167.716 11.3968 167.794 11.6214 167.911 11.8037C168.028 11.986 168.181 12.1243 168.37 12.2188C168.562 12.3099 168.785 12.3555 169.039 12.3555C169.254 12.3555 169.444 12.318 169.61 12.2432C169.776 12.1683 169.916 12.0609 170.03 11.9209C170.144 11.7809 170.23 11.6117 170.289 11.4131C170.351 11.2145 170.382 10.9915 170.382 10.7441C170.382 10.5195 170.351 10.3112 170.289 10.1191C170.227 9.92708 170.134 9.75944 170.011 9.61621C169.89 9.47298 169.742 9.3623 169.566 9.28418C169.391 9.2028 169.189 9.16211 168.961 9.16211C168.658 9.16211 168.429 9.2028 168.272 9.28418C168.119 9.36556 167.962 9.47624 167.799 9.61621Z" fill="white"/>
</svg>
