<svg width="60" height="60" viewBox="0 0 60 60" fill="none" xmlns="http://www.w3.org/2000/svg">
<path d="M25.6075 40.785L15 30.175L18.535 26.64L25.6075 33.71L39.7475 19.5675L43.285 23.105L25.6075 40.785Z" fill="#88C507"/>
<path fill-rule="evenodd" clip-rule="evenodd" d="M2.5 30C2.5 14.8125 14.8125 2.5 30 2.5C45.1875 2.5 57.5 14.8125 57.5 30C57.5 45.1875 45.1875 57.5 30 57.5C14.8125 57.5 2.5 45.1875 2.5 30ZM30 52.5C27.0453 52.5 24.1194 51.918 21.3896 50.7873C18.6598 49.6566 16.1794 47.9992 14.0901 45.9099C12.0008 43.8206 10.3434 41.3402 9.21271 38.6104C8.08198 35.8806 7.5 32.9547 7.5 30C7.5 27.0453 8.08198 24.1194 9.21271 21.3896C10.3434 18.6598 12.0008 16.1794 14.0901 14.0901C16.1794 12.0008 18.6598 10.3434 21.3896 9.21271C24.1194 8.08198 27.0453 7.5 30 7.5C35.9674 7.5 41.6903 9.87053 45.9099 14.0901C50.1295 18.3097 52.5 24.0326 52.5 30C52.5 35.9674 50.1295 41.6903 45.9099 45.9099C41.6903 50.1295 35.9674 52.5 30 52.5Z" fill="#88C507"/>
</svg>
