<svg width="329" height="140" viewBox="0 0 329 140" fill="none" xmlns="http://www.w3.org/2000/svg">
<rect width="47.1306" height="115.566" fill="white"/>
<rect x="187.52" width="47.1306" height="115.566" fill="white"/>
<rect x="47.1306" width="47.1306" height="115.566" fill="white"/>
<rect x="234.65" width="47.1306" height="115.566" fill="white"/>
<rect x="94.2612" width="47.1306" height="115.566" fill="white"/>
<rect x="281.781" width="47.1306" height="115.566" fill="white"/>
<rect x="141.392" width="46.1278" height="115.566" fill="white"/>
<rect y="115.226" width="328.911" height="1.15567" fill="#2C2C2C"/>
<rect x="297.825" y="69" width="16.0444" height="46.2264" fill="#2291F8"/>
<rect x="250.694" y="69" width="16.0444" height="46.2264" fill="#91C8FC"/>
<rect x="203.564" y="69" width="16.0444" height="46.2264" fill="#91C8FC"/>
<rect x="156.433" y="69" width="16.0444" height="46.2264" fill="#91C8FC"/>
<rect x="110.306" y="69" width="16.0444" height="46.2264" fill="#91C8FC"/>
<rect x="63.175" y="69" width="16.0444" height="46.2264" fill="#91C8FC"/>
<rect x="16.0444" y="69" width="16.0444" height="46.2264" fill="#91C8FC"/>
<path d="M156.099 128.049V136.627H155.015V129.403L152.829 130.2V129.221L155.929 128.049H156.099ZM163.177 128.096L159.62 137.36H158.688L162.251 128.096H163.177ZM169.833 135.737V136.627H164.249V135.848L167.044 132.737C167.388 132.354 167.653 132.03 167.841 131.764C168.032 131.495 168.165 131.254 168.239 131.043C168.317 130.829 168.356 130.61 168.356 130.387C168.356 130.106 168.298 129.852 168.181 129.625C168.067 129.395 167.899 129.211 167.677 129.075C167.454 128.938 167.185 128.87 166.868 128.87C166.489 128.87 166.173 128.944 165.919 129.092C165.669 129.237 165.481 129.44 165.356 129.702C165.231 129.963 165.169 130.264 165.169 130.604H164.085C164.085 130.123 164.19 129.684 164.401 129.286C164.612 128.887 164.925 128.571 165.339 128.336C165.753 128.098 166.263 127.979 166.868 127.979C167.407 127.979 167.868 128.075 168.251 128.266C168.634 128.454 168.927 128.719 169.13 129.063C169.337 129.403 169.44 129.801 169.44 130.258C169.44 130.508 169.397 130.762 169.312 131.02C169.229 131.274 169.114 131.528 168.966 131.782C168.821 132.036 168.651 132.286 168.456 132.532C168.265 132.778 168.06 133.02 167.841 133.258L165.556 135.737H169.833ZM174.556 128.049V136.627H173.472V129.403L171.286 130.2V129.221L174.386 128.049H174.556Z" fill="#616161"/>
<path d="M109.971 128.049V136.627H108.887V129.403L106.701 130.2V129.221L109.801 128.049H109.971ZM117.049 128.096L113.492 137.36H112.561L116.123 128.096H117.049ZM123.705 135.737V136.627H118.121V135.848L120.916 132.737C121.26 132.354 121.525 132.03 121.713 131.764C121.904 131.495 122.037 131.254 122.111 131.043C122.189 130.829 122.229 130.61 122.229 130.387C122.229 130.106 122.17 129.852 122.053 129.625C121.939 129.395 121.771 129.211 121.549 129.075C121.326 128.938 121.057 128.87 120.74 128.87C120.361 128.87 120.045 128.944 119.791 129.092C119.541 129.237 119.354 129.44 119.229 129.702C119.104 129.963 119.041 130.264 119.041 130.604H117.957C117.957 130.123 118.062 129.684 118.273 129.286C118.484 128.887 118.797 128.571 119.211 128.336C119.625 128.098 120.135 127.979 120.74 127.979C121.279 127.979 121.74 128.075 122.123 128.266C122.506 128.454 122.799 128.719 123.002 129.063C123.209 129.403 123.312 129.801 123.312 130.258C123.312 130.508 123.27 130.762 123.184 131.02C123.102 131.274 122.986 131.528 122.838 131.782C122.693 132.036 122.523 132.286 122.328 132.532C122.137 132.778 121.932 133.02 121.713 133.258L119.428 135.737H123.705ZM130.221 131.682V132.983C130.221 133.682 130.158 134.272 130.033 134.752C129.908 135.233 129.729 135.62 129.494 135.913C129.26 136.206 128.977 136.418 128.645 136.551C128.316 136.68 127.945 136.745 127.531 136.745C127.203 136.745 126.9 136.704 126.623 136.622C126.346 136.539 126.096 136.409 125.873 136.229C125.654 136.045 125.467 135.807 125.311 135.514C125.154 135.221 125.035 134.866 124.953 134.448C124.871 134.03 124.83 133.541 124.83 132.983V131.682C124.83 130.983 124.893 130.397 125.018 129.924C125.146 129.452 125.328 129.073 125.562 128.788C125.797 128.498 126.078 128.291 126.406 128.166C126.738 128.041 127.109 127.979 127.52 127.979C127.852 127.979 128.156 128.02 128.434 128.102C128.715 128.18 128.965 128.307 129.184 128.483C129.402 128.655 129.588 128.885 129.74 129.174C129.896 129.459 130.016 129.809 130.098 130.223C130.18 130.637 130.221 131.123 130.221 131.682ZM129.131 133.159V131.5C129.131 131.118 129.107 130.782 129.061 130.493C129.018 130.2 128.953 129.95 128.867 129.743C128.781 129.536 128.672 129.368 128.539 129.239C128.41 129.11 128.26 129.016 128.088 128.957C127.92 128.895 127.73 128.864 127.52 128.864C127.262 128.864 127.033 128.913 126.834 129.01C126.635 129.104 126.467 129.254 126.33 129.461C126.197 129.668 126.096 129.94 126.025 130.276C125.955 130.612 125.92 131.02 125.92 131.5V133.159C125.92 133.541 125.941 133.879 125.984 134.172C126.031 134.465 126.1 134.719 126.189 134.934C126.279 135.145 126.389 135.319 126.518 135.456C126.646 135.592 126.795 135.694 126.963 135.76C127.135 135.823 127.324 135.854 127.531 135.854C127.797 135.854 128.029 135.803 128.229 135.702C128.428 135.6 128.594 135.442 128.727 135.227C128.863 135.008 128.965 134.729 129.031 134.389C129.098 134.045 129.131 133.635 129.131 133.159Z" fill="#616161"/>
<path d="M61.8374 128.049V136.627H60.7534V129.403L58.5679 130.2V129.221L61.6675 128.049H61.8374ZM68.9155 128.096L65.3589 137.36H64.4272L67.9897 128.096H68.9155ZM73.5444 128.049V136.627H72.4604V129.403L70.2749 130.2V129.221L73.3745 128.049H73.5444ZM77.8101 135.719H77.9214C78.5464 135.719 79.0542 135.631 79.4448 135.456C79.8354 135.28 80.1362 135.043 80.3472 134.747C80.5581 134.45 80.7026 134.116 80.7808 133.745C80.8589 133.37 80.8979 132.985 80.8979 132.59V131.284C80.8979 130.897 80.853 130.553 80.7632 130.252C80.6772 129.952 80.5562 129.7 80.3999 129.497C80.2476 129.293 80.0737 129.139 79.8784 129.034C79.6831 128.928 79.4761 128.875 79.2573 128.875C79.0073 128.875 78.7827 128.926 78.5835 129.028C78.3882 129.125 78.2222 129.264 78.0854 129.444C77.9526 129.623 77.8511 129.834 77.7808 130.077C77.7104 130.319 77.6753 130.582 77.6753 130.868C77.6753 131.122 77.7065 131.368 77.769 131.606C77.8315 131.844 77.9272 132.059 78.0562 132.25C78.1851 132.442 78.3452 132.594 78.5366 132.707C78.7319 132.817 78.9604 132.872 79.2222 132.872C79.4644 132.872 79.6909 132.825 79.9019 132.731C80.1167 132.633 80.3062 132.502 80.4702 132.338C80.6382 132.17 80.771 131.981 80.8687 131.77C80.9702 131.559 81.0288 131.338 81.0444 131.108H81.5601C81.5601 131.432 81.4956 131.752 81.3667 132.069C81.2417 132.381 81.0659 132.666 80.8394 132.924C80.6128 133.182 80.3472 133.389 80.0425 133.545C79.7378 133.698 79.4058 133.774 79.0464 133.774C78.6245 133.774 78.2593 133.692 77.9507 133.528C77.6421 133.364 77.3882 133.145 77.189 132.872C76.9937 132.598 76.8472 132.293 76.7495 131.957C76.6558 131.618 76.6089 131.274 76.6089 130.926C76.6089 130.52 76.6655 130.139 76.7788 129.784C76.8921 129.428 77.0601 129.116 77.2827 128.846C77.5054 128.573 77.7808 128.36 78.1089 128.207C78.4409 128.055 78.8237 127.979 79.2573 127.979C79.7456 127.979 80.1616 128.077 80.5054 128.272C80.8491 128.467 81.1284 128.729 81.3433 129.057C81.562 129.385 81.7222 129.754 81.8237 130.164C81.9253 130.575 81.9761 130.997 81.9761 131.43V131.823C81.9761 132.264 81.9468 132.713 81.8882 133.17C81.8335 133.623 81.7261 134.057 81.5659 134.471C81.4097 134.885 81.1812 135.256 80.8804 135.584C80.5796 135.909 80.187 136.166 79.7026 136.358C79.2222 136.545 78.6284 136.639 77.9214 136.639H77.8101V135.719Z" fill="#616161"/>
<path d="M15.7097 128.049V136.627H14.6257V129.403L12.4402 130.2V129.221L15.5398 128.049H15.7097ZM22.7878 128.096L19.2312 137.36H18.2996L21.8621 128.096H22.7878ZM27.4167 128.049V136.627H26.3328V129.403L24.1472 130.2V129.221L27.2468 128.049H27.4167ZM35.9832 134.319C35.9832 134.838 35.8621 135.28 35.6199 135.643C35.3816 136.002 35.0574 136.276 34.6472 136.463C34.241 136.651 33.782 136.745 33.2703 136.745C32.7585 136.745 32.2976 136.651 31.8875 136.463C31.4773 136.276 31.1531 136.002 30.9148 135.643C30.6765 135.28 30.5574 134.838 30.5574 134.319C30.5574 133.979 30.6218 133.668 30.7507 133.387C30.8835 133.102 31.0691 132.854 31.3074 132.643C31.5496 132.432 31.8347 132.27 32.1628 132.157C32.4949 132.039 32.8601 131.981 33.2585 131.981C33.782 131.981 34.2488 132.082 34.6589 132.286C35.0691 132.485 35.3914 132.76 35.6257 133.112C35.864 133.463 35.9832 133.866 35.9832 134.319ZM34.8933 134.295C34.8933 133.979 34.825 133.7 34.6882 133.457C34.5515 133.211 34.3601 133.02 34.114 132.883C33.8679 132.747 33.5828 132.678 33.2585 132.678C32.9265 132.678 32.6394 132.747 32.3972 132.883C32.1589 133.02 31.9734 133.211 31.8406 133.457C31.7078 133.7 31.6414 133.979 31.6414 134.295C31.6414 134.623 31.7058 134.905 31.8347 135.139C31.9675 135.37 32.155 135.547 32.3972 135.672C32.6433 135.793 32.9343 135.854 33.2703 135.854C33.6062 135.854 33.8953 135.793 34.1375 135.672C34.3796 135.547 34.5652 135.37 34.6941 135.139C34.8269 134.905 34.8933 134.623 34.8933 134.295ZM35.7839 130.317C35.7839 130.731 35.6746 131.104 35.4558 131.436C35.2371 131.768 34.9382 132.03 34.5593 132.221C34.1804 132.413 33.7507 132.508 33.2703 132.508C32.782 132.508 32.3464 132.413 31.9636 132.221C31.5847 132.03 31.2878 131.768 31.073 131.436C30.8582 131.104 30.7507 130.731 30.7507 130.317C30.7507 129.821 30.8582 129.399 31.073 129.051C31.2917 128.704 31.5906 128.438 31.9695 128.254C32.3484 128.071 32.78 127.979 33.2644 127.979C33.7527 127.979 34.1863 128.071 34.5652 128.254C34.9441 128.438 35.241 128.704 35.4558 129.051C35.6746 129.399 35.7839 129.821 35.7839 130.317ZM34.7 130.334C34.7 130.049 34.6394 129.797 34.5183 129.579C34.3972 129.36 34.2292 129.188 34.0144 129.063C33.7996 128.934 33.5496 128.87 33.2644 128.87C32.9792 128.87 32.7292 128.93 32.5144 129.051C32.3035 129.168 32.1375 129.336 32.0164 129.555C31.8992 129.774 31.8406 130.034 31.8406 130.334C31.8406 130.627 31.8992 130.883 32.0164 131.102C32.1375 131.321 32.3054 131.491 32.5203 131.612C32.7351 131.733 32.9851 131.793 33.2703 131.793C33.5554 131.793 33.8035 131.733 34.0144 131.612C34.2292 131.491 34.3972 131.321 34.5183 131.102C34.6394 130.883 34.7 130.627 34.7 130.334Z" fill="#616161"/>
<path d="M250.349 128.049V136.627H249.265V129.403L247.079 130.2V129.221L250.179 128.049H250.349ZM257.427 128.096L253.87 137.36H252.938L256.501 128.096H257.427ZM264.083 135.737V136.627H258.499V135.848L261.294 132.737C261.638 132.354 261.903 132.03 262.091 131.764C262.282 131.495 262.415 131.254 262.489 131.043C262.567 130.829 262.606 130.61 262.606 130.387C262.606 130.106 262.548 129.852 262.431 129.625C262.317 129.395 262.149 129.211 261.927 129.075C261.704 128.938 261.435 128.87 261.118 128.87C260.739 128.87 260.423 128.944 260.169 129.092C259.919 129.237 259.731 129.44 259.606 129.702C259.481 129.963 259.419 130.264 259.419 130.604H258.335C258.335 130.123 258.44 129.684 258.651 129.286C258.862 128.887 259.175 128.571 259.589 128.336C260.003 128.098 260.513 127.979 261.118 127.979C261.657 127.979 262.118 128.075 262.501 128.266C262.884 128.454 263.177 128.719 263.38 129.063C263.587 129.403 263.69 129.801 263.69 130.258C263.69 130.508 263.647 130.762 263.562 131.02C263.479 131.274 263.364 131.528 263.216 131.782C263.071 132.036 262.901 132.286 262.706 132.532C262.515 132.778 262.31 133.02 262.091 133.258L259.806 135.737H264.083ZM266.825 131.829H267.599C267.978 131.829 268.29 131.766 268.536 131.641C268.786 131.512 268.972 131.338 269.093 131.12C269.218 130.897 269.28 130.647 269.28 130.37C269.28 130.041 269.226 129.766 269.116 129.543C269.007 129.321 268.843 129.153 268.624 129.039C268.405 128.926 268.128 128.87 267.792 128.87C267.487 128.87 267.218 128.93 266.983 129.051C266.753 129.168 266.571 129.336 266.438 129.555C266.31 129.774 266.245 130.032 266.245 130.329H265.161C265.161 129.895 265.271 129.5 265.489 129.145C265.708 128.789 266.015 128.506 266.409 128.295C266.808 128.084 267.269 127.979 267.792 127.979C268.308 127.979 268.759 128.071 269.146 128.254C269.532 128.434 269.833 128.704 270.048 129.063C270.263 129.418 270.37 129.862 270.37 130.393C270.37 130.608 270.319 130.838 270.218 131.084C270.12 131.327 269.966 131.553 269.755 131.764C269.548 131.975 269.278 132.149 268.946 132.286C268.614 132.418 268.216 132.485 267.751 132.485H266.825V131.829ZM266.825 132.719V132.069H267.751C268.294 132.069 268.743 132.133 269.099 132.262C269.454 132.391 269.733 132.563 269.937 132.778C270.144 132.993 270.288 133.229 270.37 133.487C270.456 133.741 270.499 133.995 270.499 134.248C270.499 134.647 270.431 135 270.294 135.309C270.161 135.618 269.972 135.879 269.726 136.094C269.483 136.309 269.198 136.471 268.87 136.581C268.542 136.69 268.185 136.745 267.798 136.745C267.427 136.745 267.077 136.692 266.749 136.586C266.425 136.481 266.138 136.329 265.888 136.129C265.638 135.926 265.442 135.678 265.302 135.385C265.161 135.088 265.091 134.75 265.091 134.372H266.175C266.175 134.668 266.239 134.928 266.368 135.151C266.501 135.373 266.688 135.547 266.931 135.672C267.177 135.793 267.466 135.854 267.798 135.854C268.13 135.854 268.415 135.797 268.653 135.684C268.896 135.567 269.081 135.391 269.21 135.157C269.343 134.922 269.409 134.627 269.409 134.272C269.409 133.916 269.335 133.625 269.187 133.399C269.038 133.168 268.827 132.998 268.554 132.889C268.284 132.776 267.966 132.719 267.599 132.719H266.825Z" fill="#616161"/>
<path d="M203.229 128.049V136.627H202.145V129.403L199.959 130.2V129.221L203.059 128.049H203.229ZM210.307 128.096L206.75 137.36H205.819L209.381 128.096H210.307ZM216.963 135.737V136.627H211.379V135.848L214.174 132.737C214.518 132.354 214.784 132.03 214.971 131.764C215.163 131.495 215.295 131.254 215.37 131.043C215.448 130.829 215.487 130.61 215.487 130.387C215.487 130.106 215.428 129.852 215.311 129.625C215.198 129.395 215.03 129.211 214.807 129.075C214.584 128.938 214.315 128.87 213.999 128.87C213.62 128.87 213.303 128.944 213.049 129.092C212.799 129.237 212.612 129.44 212.487 129.702C212.362 129.963 212.299 130.264 212.299 130.604H211.215C211.215 130.123 211.321 129.684 211.532 129.286C211.743 128.887 212.055 128.571 212.469 128.336C212.883 128.098 213.393 127.979 213.999 127.979C214.538 127.979 214.999 128.075 215.381 128.266C215.764 128.454 216.057 128.719 216.26 129.063C216.467 129.403 216.571 129.801 216.571 130.258C216.571 130.508 216.528 130.762 216.442 131.02C216.36 131.274 216.245 131.528 216.096 131.782C215.952 132.036 215.782 132.286 215.586 132.532C215.395 132.778 215.19 133.02 214.971 133.258L212.686 135.737H216.963ZM223.713 135.737V136.627H218.129V135.848L220.924 132.737C221.268 132.354 221.534 132.03 221.721 131.764C221.913 131.495 222.045 131.254 222.12 131.043C222.198 130.829 222.237 130.61 222.237 130.387C222.237 130.106 222.178 129.852 222.061 129.625C221.948 129.395 221.78 129.211 221.557 129.075C221.334 128.938 221.065 128.87 220.749 128.87C220.37 128.87 220.053 128.944 219.799 129.092C219.549 129.237 219.362 129.44 219.237 129.702C219.112 129.963 219.049 130.264 219.049 130.604H217.965C217.965 130.123 218.071 129.684 218.282 129.286C218.493 128.887 218.805 128.571 219.219 128.336C219.633 128.098 220.143 127.979 220.749 127.979C221.288 127.979 221.749 128.075 222.131 128.266C222.514 128.454 222.807 128.719 223.01 129.063C223.217 129.403 223.321 129.801 223.321 130.258C223.321 130.508 223.278 130.762 223.192 131.02C223.11 131.274 222.995 131.528 222.846 131.782C222.702 132.036 222.532 132.286 222.336 132.532C222.145 132.778 221.94 133.02 221.721 133.258L219.436 135.737H223.713Z" fill="#616161"/>
<path d="M293.71 128.096V136.627H291.958V128.096H293.71ZM296.335 128.096V129.473H289.374V128.096H296.335ZM295.943 133.522V133.399C295.943 132.934 296.009 132.506 296.142 132.116C296.275 131.721 296.468 131.379 296.722 131.09C296.976 130.801 297.288 130.577 297.659 130.416C298.031 130.252 298.456 130.17 298.937 130.17C299.417 130.17 299.845 130.252 300.22 130.416C300.595 130.577 300.909 130.801 301.163 131.09C301.421 131.379 301.616 131.721 301.749 132.116C301.882 132.506 301.948 132.934 301.948 133.399V133.522C301.948 133.983 301.882 134.411 301.749 134.805C301.616 135.196 301.421 135.538 301.163 135.831C300.909 136.12 300.597 136.344 300.226 136.504C299.855 136.664 299.429 136.745 298.948 136.745C298.468 136.745 298.04 136.664 297.665 136.504C297.294 136.344 296.98 136.12 296.722 135.831C296.468 135.538 296.275 135.196 296.142 134.805C296.009 134.411 295.943 133.983 295.943 133.522ZM297.63 133.399V133.522C297.63 133.788 297.654 134.036 297.7 134.266C297.747 134.497 297.822 134.7 297.923 134.875C298.029 135.047 298.165 135.182 298.333 135.28C298.501 135.377 298.706 135.426 298.948 135.426C299.183 135.426 299.384 135.377 299.552 135.28C299.72 135.182 299.855 135.047 299.956 134.875C300.058 134.7 300.132 134.497 300.179 134.266C300.23 134.036 300.255 133.788 300.255 133.522V133.399C300.255 133.141 300.23 132.899 300.179 132.672C300.132 132.442 300.056 132.239 299.95 132.063C299.849 131.883 299.714 131.743 299.546 131.641C299.378 131.539 299.175 131.489 298.937 131.489C298.698 131.489 298.495 131.539 298.327 131.641C298.163 131.743 298.029 131.883 297.923 132.063C297.822 132.239 297.747 132.442 297.7 132.672C297.654 132.899 297.63 133.141 297.63 133.399ZM306.73 135.245V127.627H308.429V136.627H306.9L306.73 135.245ZM302.722 133.534V133.411C302.722 132.926 302.777 132.487 302.886 132.092C302.995 131.694 303.156 131.352 303.366 131.067C303.577 130.782 303.837 130.561 304.146 130.405C304.454 130.248 304.806 130.17 305.2 130.17C305.572 130.17 305.896 130.248 306.173 130.405C306.454 130.561 306.693 130.784 306.888 131.073C307.087 131.358 307.247 131.696 307.368 132.086C307.49 132.473 307.577 132.897 307.632 133.358V133.627C307.577 134.069 307.49 134.479 307.368 134.858C307.247 135.237 307.087 135.569 306.888 135.854C306.693 136.135 306.454 136.354 306.173 136.51C305.892 136.666 305.564 136.745 305.189 136.745C304.794 136.745 304.443 136.664 304.134 136.504C303.829 136.344 303.572 136.12 303.361 135.831C303.154 135.541 302.995 135.202 302.886 134.811C302.777 134.42 302.722 133.995 302.722 133.534ZM304.409 133.411V133.534C304.409 133.795 304.429 134.039 304.468 134.266C304.511 134.493 304.579 134.694 304.673 134.87C304.771 135.041 304.896 135.176 305.048 135.274C305.204 135.368 305.394 135.414 305.616 135.414C305.906 135.414 306.144 135.35 306.331 135.221C306.519 135.088 306.661 134.907 306.759 134.676C306.861 134.446 306.919 134.18 306.935 133.879V133.112C306.923 132.866 306.888 132.645 306.829 132.45C306.775 132.25 306.693 132.081 306.583 131.94C306.478 131.799 306.345 131.69 306.185 131.612C306.029 131.534 305.843 131.495 305.628 131.495C305.409 131.495 305.222 131.545 305.066 131.647C304.909 131.745 304.782 131.879 304.685 132.051C304.591 132.223 304.521 132.426 304.474 132.661C304.431 132.891 304.409 133.141 304.409 133.411ZM313.169 135.198V132.373C313.169 132.17 313.136 131.997 313.07 131.852C313.003 131.704 312.9 131.588 312.759 131.506C312.622 131.424 312.445 131.383 312.226 131.383C312.038 131.383 311.876 131.416 311.74 131.483C311.603 131.545 311.497 131.637 311.423 131.758C311.349 131.875 311.312 132.014 311.312 132.174H309.624C309.624 131.905 309.687 131.649 309.812 131.407C309.937 131.164 310.118 130.952 310.357 130.768C310.595 130.581 310.878 130.434 311.206 130.329C311.538 130.223 311.909 130.17 312.32 130.17C312.812 130.17 313.249 130.252 313.632 130.416C314.015 130.581 314.316 130.827 314.534 131.155C314.757 131.483 314.868 131.893 314.868 132.385V135.098C314.868 135.446 314.89 135.731 314.933 135.954C314.976 136.172 315.038 136.364 315.12 136.528V136.627H313.415C313.333 136.456 313.271 136.241 313.228 135.983C313.189 135.721 313.169 135.459 313.169 135.198ZM313.392 132.766L313.404 133.721H312.46C312.238 133.721 312.044 133.747 311.88 133.797C311.716 133.848 311.581 133.92 311.476 134.014C311.37 134.104 311.292 134.209 311.241 134.331C311.195 134.452 311.171 134.584 311.171 134.729C311.171 134.873 311.204 135.004 311.271 135.122C311.337 135.235 311.433 135.325 311.558 135.391C311.683 135.454 311.829 135.485 311.997 135.485C312.251 135.485 312.472 135.434 312.659 135.332C312.847 135.231 312.991 135.106 313.093 134.957C313.198 134.809 313.253 134.668 313.257 134.536L313.702 135.25C313.64 135.411 313.554 135.577 313.445 135.748C313.339 135.92 313.204 136.082 313.04 136.235C312.876 136.383 312.679 136.506 312.448 136.604C312.218 136.698 311.945 136.745 311.628 136.745C311.226 136.745 310.861 136.664 310.532 136.504C310.208 136.34 309.95 136.116 309.759 135.831C309.572 135.541 309.478 135.213 309.478 134.846C309.478 134.514 309.54 134.219 309.665 133.961C309.79 133.704 309.974 133.487 310.216 133.311C310.462 133.131 310.769 132.997 311.136 132.907C311.503 132.813 311.929 132.766 312.413 132.766H313.392ZM317.956 135.913L319.638 130.288H321.448L318.9 137.582C318.845 137.743 318.771 137.914 318.677 138.098C318.587 138.282 318.464 138.456 318.308 138.62C318.156 138.788 317.962 138.924 317.728 139.03C317.497 139.135 317.214 139.188 316.878 139.188C316.718 139.188 316.587 139.178 316.486 139.159C316.384 139.139 316.263 139.112 316.122 139.077V137.84C316.165 137.84 316.21 137.84 316.257 137.84C316.304 137.844 316.349 137.846 316.392 137.846C316.615 137.846 316.796 137.821 316.937 137.77C317.077 137.719 317.191 137.641 317.277 137.536C317.363 137.434 317.431 137.301 317.482 137.137L317.956 135.913ZM317.253 130.288L318.63 134.881L318.87 136.668L317.722 136.791L315.443 130.288H317.253Z" fill="#2C2C2C"/>
</svg>
