<svg width="24" height="24" viewBox="0 0 24 24" fill="none" xmlns="http://www.w3.org/2000/svg">
<path d="M12 18.2C12.5523 18.2 13 17.7523 13 17.2C13 16.6477 12.5523 16.2 12 16.2C11.4477 16.2 11 16.6477 11 17.2C11 17.7523 11.4477 18.2 12 18.2Z" fill="#2C2C2C"/>
<path d="M12 15.2C11.45 15.2 11 14.75 11 14.2V13.38C11 12.35 11.66 11.43 12.65 11.09C13.45 10.81 14.16 9.95003 13.97 8.83003C13.83 8.04003 13.16 7.37002 12.37 7.23002C11.77 7.12002 11.18 7.28003 10.71 7.66003C10.26 8.04003 10 8.60003 10 9.19003C10 9.74003 9.55 10.19 9 10.19C8.45 10.19 8 9.74003 8 9.19003C8 8.00003 8.52 6.89002 9.43 6.13002C10.34 5.37002 11.53 5.05002 12.72 5.26002C14.33 5.54002 15.66 6.87002 15.94 8.48002C16.28 10.44 15.18 12.34 13.3 12.98C13.12 13.04 13 13.2 13 13.38V14.2C13 14.75 12.55 15.2 12 15.2Z" fill="#2C2C2C"/>
<path d="M12 4.20001C16.41 4.20001 20 7.79001 20 12.2C20 16.61 16.41 20.2 12 20.2C7.59 20.2 4 16.61 4 12.2C4 7.79001 7.59 4.20001 12 4.20001ZM12 2.20001C6.48 2.20001 2 6.68001 2 12.2C2 17.72 6.48 22.2 12 22.2C17.52 22.2 22 17.72 22 12.2C22 6.68001 17.52 2.20001 12 2.20001Z" fill="#2C2C2C"/>
</svg>
