<svg width="24" height="24" viewBox="0 0 24 24" fill="none" xmlns="http://www.w3.org/2000/svg">
<path d="M12 5.5L17.99 10V19H15.01V16C15.01 14.35 13.66 13 12.01 13C10.36 13 9.01 14.35 9.01 16V19H6.03V10L12.01 5.5M12 3.25C11.79 3.25 11.58 3.32 11.4 3.45L4.42 8.7C4.17 8.89 4.02 9.19 4.02 9.5V20C4.02 20.55 4.47 21 5.02 21H10C10.55 21 11 20.55 11 20V16C11 15.45 11.45 15 12 15C12.55 15 13 15.45 13 16V20C13 20.55 13.45 21 14 21H18.98C19.53 21 19.98 20.55 19.98 20V9.5C19.98 9.19 19.83 8.89 19.58 8.7L12.59 3.45C12.41 3.32 12.2 3.25 11.99 3.25H12Z" fill="#2291F8"/>
</svg>
