<svg width="24" height="24" viewBox="0 0 24 24" fill="none" xmlns="http://www.w3.org/2000/svg">
<path d="M11.49 3.38002L4.36 8.74002C4.15 8.90002 4.02 9.15002 4.02 9.42002V20.14C4.02 20.61 4.4 20.99 4.87 20.99H9.15C9.62 20.99 10 20.61 10 20.14V15.99C10 14.89 10.9 13.99 12 13.99C13.1 13.99 14 14.89 14 15.99V20.14C14 20.61 14.38 20.99 14.85 20.99H19.13C19.6 20.99 19.98 20.61 19.98 20.14V9.42002C19.98 9.15002 19.85 8.90002 19.64 8.74002L12.5 3.38002C12.2 3.15002 11.78 3.15002 11.48 3.38002H11.49Z" fill="#2291F8"/>
</svg>
