<svg width="24" height="24" viewBox="0 0 24 24" fill="none" xmlns="http://www.w3.org/2000/svg">
<path d="M12 17.2C11.45 17.2 11 16.75 11 16.2V11.2C11 10.65 11.45 10.2 12 10.2C12.55 10.2 13 10.65 13 11.2V16.2C13 16.75 12.55 17.2 12 17.2Z" fill="#2C2C2C"/>
<path d="M12 4.15002C16.41 4.15002 20 7.74002 20 12.15C20 16.56 16.41 20.15 12 20.15C7.59 20.15 4 16.56 4 12.15C4 7.74002 7.59 4.15002 12 4.15002ZM12 2.15002C6.48 2.15002 2 6.63002 2 12.15C2 17.67 6.48 22.15 12 22.15C17.52 22.15 22 17.67 22 12.15C22 6.63002 17.52 2.15002 12 2.15002Z" fill="#2C2C2C"/>
<path d="M12 9.20001C12.5523 9.20001 13 8.7523 13 8.20001C13 7.64773 12.5523 7.20001 12 7.20001C11.4477 7.20001 11 7.64773 11 8.20001C11 8.7523 11.4477 9.20001 12 9.20001Z" fill="#2C2C2C"/>
</svg>
