<svg width="24" height="24" viewBox="0 0 24 24" fill="none" xmlns="http://www.w3.org/2000/svg">
<path d="M12.1257 6.3747C13.3339 6.3747 14.3134 5.39539 14.3134 4.18735C14.3134 2.97931 13.3339 2 12.1257 2C10.9174 2 9.93799 2.97931 9.93799 4.18735C9.93799 5.39539 10.9174 6.3747 12.1257 6.3747Z" fill="#2C2C2C"/>
<path d="M19.1966 6.99971H5.05478C4.77503 6.99971 4.50675 7.11082 4.30894 7.3086C4.11113 7.50638 4 7.77462 4 8.05432C4 8.33402 4.11113 8.60227 4.30894 8.80005C4.50675 8.99783 4.77503 9.10894 5.05478 9.10894H9.03479C9.30474 9.10894 9.62078 9.22963 9.7997 9.69484C10.0087 10.235 9.90635 11.2783 9.77743 12.0865L9.60867 13.0415C9.60898 13.044 9.60872 13.0465 9.60791 13.0489C9.6071 13.0512 9.60575 13.0534 9.60398 13.0552L8.25231 20.7425C8.20329 21.0216 8.26681 21.3087 8.42897 21.541C8.59114 21.7734 8.83874 21.932 9.11761 21.9823C9.25548 22.0067 9.39683 22.0034 9.53343 21.9727C9.67004 21.9421 9.79919 21.8845 9.91339 21.8035C10.0276 21.7225 10.1245 21.6197 10.1986 21.5009C10.2728 21.3821 10.3225 21.2498 10.3451 21.1116L11.2791 15.7683C11.2791 15.7683 11.5788 14.4992 12.1257 14.4992C12.6816 14.4992 12.975 15.7683 12.975 15.7683L13.909 21.1163C13.9316 21.2557 13.9817 21.3892 14.0565 21.509C14.1312 21.6288 14.229 21.7326 14.3442 21.8142C14.4594 21.8959 14.5898 21.9538 14.7276 21.9845C14.8654 22.0153 15.008 22.0183 15.147 21.9934C15.286 21.9686 15.4187 21.9163 15.5373 21.8396C15.6559 21.7629 15.758 21.6634 15.8378 21.5469C15.9175 21.4303 15.9732 21.2991 16.0017 21.1608C16.0302 21.0225 16.0309 20.8799 16.0037 20.7414L14.6517 13.054C14.6519 13.0515 14.6517 13.049 14.651 13.0467C14.6502 13.0443 14.649 13.0422 14.6474 13.0403L14.4782 12.0853C14.3493 11.2772 14.2469 10.2339 14.4559 9.69367C14.6341 9.22963 14.9603 9.10777 15.2091 9.10777H19.1966C19.4763 9.10777 19.7446 8.99666 19.9424 8.79888C20.1402 8.6011 20.2514 8.33285 20.2514 8.05315C20.2514 7.77345 20.1402 7.5052 19.9424 7.30742C19.7446 7.10965 19.4763 6.99854 19.1966 6.99854V6.99971Z" fill="#2C2C2C"/>
</svg>
