<svg width="24" height="25" viewBox="0 0 24 25" fill="none" xmlns="http://www.w3.org/2000/svg">
<path d="M12 8.15002C13.1046 8.15002 14 7.25459 14 6.15002C14 5.04545 13.1046 4.15002 12 4.15002C10.8954 4.15002 10 5.04545 10 6.15002C10 7.25459 10.8954 8.15002 12 8.15002Z" fill="#2C2C2C"/>
<path d="M12 14.15C13.1046 14.15 14 13.2546 14 12.15C14 11.0455 13.1046 10.15 12 10.15C10.8954 10.15 10 11.0455 10 12.15C10 13.2546 10.8954 14.15 12 14.15Z" fill="#2C2C2C"/>
<path d="M12 20.15C13.1046 20.15 14 19.2546 14 18.15C14 17.0455 13.1046 16.15 12 16.15C10.8954 16.15 10 17.0455 10 18.15C10 19.2546 10.8954 20.15 12 20.15Z" fill="#2C2C2C"/>
</svg>
