<svg width="24" height="25" viewBox="0 0 24 25" fill="none" xmlns="http://www.w3.org/2000/svg">
<path d="M19.59 18.65C21.09 16.9 22 14.63 22 12.15C22 9.67002 21.09 7.40002 19.59 5.65002C19.37 5.39002 19.13 5.15002 18.89 4.91002C18.86 4.88002 18.83 4.86002 18.8 4.83002C18.58 4.63002 18.35 4.43002 18.12 4.25002C18.07 4.21002 18.01 4.17002 17.96 4.13002C17.74 3.97002 17.52 3.82001 17.29 3.67001C17.22 3.62001 17.14 3.58001 17.07 3.53001C16.85 3.40001 16.63 3.28001 16.41 3.17001C16.32 3.12001 16.23 3.08002 16.13 3.04002C15.91 2.94002 15.69 2.85002 15.47 2.77002C15.36 2.73002 15.26 2.69002 15.15 2.65002C14.93 2.58002 14.7 2.52001 14.47 2.46001C14.36 2.43001 14.24 2.40002 14.13 2.37002C13.89 2.32002 13.65 2.28002 13.4 2.25002C13.29 2.23002 13.19 2.21002 13.08 2.20002C12.73 2.16002 12.37 2.14001 12 2.14001C11.64 2.14001 11.28 2.16002 10.92 2.20002C10.81 2.21002 10.71 2.23002 10.6 2.25002C10.35 2.28002 10.11 2.32002 9.87 2.37002C9.75 2.40002 9.64 2.43001 9.53 2.46001C9.3 2.52001 9.08 2.58002 8.85 2.65002C8.74 2.69002 8.64 2.73002 8.53 2.77002C8.31 2.85002 8.08 2.94002 7.87 3.04002C7.78 3.08002 7.69 3.13001 7.59 3.17001C7.36 3.28001 7.14 3.40001 6.93 3.53001C6.85 3.57001 6.78 3.62001 6.71 3.67001C6.48 3.81001 6.26 3.97002 6.04 4.13002C5.99 4.17002 5.93 4.21002 5.88 4.25002C5.64 4.43002 5.42 4.63002 5.2 4.83002C5.17 4.86002 5.14 4.88002 5.11 4.91002C4.86 5.14002 4.63 5.39002 4.41 5.65002C2.91 7.40002 2 9.67002 2 12.15C2 14.63 2.91 16.9 4.41 18.65C4.63 18.91 4.87 19.15 5.11 19.39C5.14 19.42 5.17 19.44 5.2 19.47C5.42 19.67 5.65 19.87 5.88 20.05C5.93 20.09 5.99 20.13 6.04 20.17C6.26 20.33 6.48 20.48 6.71 20.63C6.78 20.68 6.86 20.72 6.93 20.77C7.15 20.9 7.37 21.02 7.59 21.13C7.68 21.18 7.77 21.22 7.87 21.26C8.09 21.36 8.31 21.45 8.53 21.53C8.64 21.57 8.74 21.61 8.85 21.65C9.07 21.72 9.3 21.78 9.53 21.84C9.64 21.87 9.76 21.9 9.87 21.93C10.11 21.98 10.35 22.02 10.6 22.05C10.71 22.07 10.81 22.09 10.92 22.1C11.27 22.14 11.63 22.16 12 22.16C12.37 22.16 12.72 22.14 13.08 22.1C13.19 22.09 13.29 22.07 13.4 22.05C13.65 22.02 13.89 21.98 14.13 21.93C14.25 21.9 14.36 21.87 14.47 21.84C14.7 21.78 14.92 21.72 15.15 21.65C15.26 21.61 15.36 21.57 15.47 21.53C15.69 21.45 15.92 21.36 16.13 21.26C16.22 21.22 16.31 21.17 16.41 21.13C16.64 21.02 16.86 20.9 17.07 20.77C17.15 20.73 17.22 20.68 17.29 20.63C17.52 20.49 17.74 20.33 17.96 20.17C18.01 20.13 18.07 20.09 18.12 20.05C18.36 19.87 18.58 19.67 18.8 19.47C18.83 19.44 18.86 19.42 18.89 19.39C19.14 19.16 19.37 18.91 19.59 18.65ZM16.61 18.67C16.3 18.89 15.98 19.09 15.64 19.26C15.6 19.28 15.55 19.3 15.51 19.32C15.43 19.36 15.35 19.38 15.27 19.42C15.45 19.01 15.61 18.57 15.75 18.09C16.06 18.26 16.36 18.43 16.65 18.64C16.64 18.64 16.63 18.66 16.61 18.67ZM8.36 19.26C8.02 19.09 7.7 18.89 7.39 18.67C7.38 18.67 7.37 18.65 7.35 18.64C7.64 18.43 7.94 18.26 8.25 18.09C8.39 18.56 8.55 19 8.73 19.42C8.65 19.38 8.57 19.36 8.49 19.32C8.45 19.3 8.4 19.28 8.36 19.26ZM7.39 5.62002C7.7 5.40002 8.02 5.20001 8.36 5.03001C8.4 5.01001 8.45 4.99002 8.49 4.97002C8.57 4.93002 8.66 4.90002 8.74 4.87002C8.63 5.11002 8.53 5.35001 8.43 5.64001C8.37 5.82001 8.32 6.02001 8.27 6.21001C7.95 6.04001 7.65 5.86002 7.35 5.65002C7.36 5.65002 7.37 5.63002 7.39 5.62002ZM15.64 5.04002C15.98 5.21002 16.3 5.41002 16.61 5.63002C16.62 5.63002 16.63 5.65002 16.65 5.66002C16.36 5.87002 16.06 6.04001 15.75 6.21001C15.61 5.74001 15.45 5.30001 15.27 4.89001C15.35 4.93001 15.43 4.95001 15.51 4.99001C15.55 5.01001 15.6 5.03002 15.64 5.05002V5.04002ZM16.48 11.15C16.44 10.17 16.35 9.18002 16.2 8.22002C16.9 7.90002 17.55 7.49001 18.14 7.03001C19.1 8.18001 19.74 9.60002 19.93 11.15H16.48ZM12 20.15C11.32 20.15 10.62 19.14 10.13 17.4C10.74 17.25 11.36 17.15 12 17.15C12.64 17.15 13.26 17.25 13.87 17.4C13.81 17.61 13.75 17.82 13.68 18.01C13.21 19.37 12.6 20.15 12 20.15ZM12 15.15C11.22 15.15 10.45 15.24 9.72 15.42C9.62 14.73 9.55 13.97 9.52 13.15H14.48C14.45 13.93 14.38 14.7 14.28 15.41C13.55 15.24 12.79 15.15 12.01 15.15H12ZM9.52 11.15C9.55 10.34 9.62 9.58001 9.72 8.88001C10.45 9.05001 11.21 9.15002 12 9.15002C12.79 9.15002 13.55 9.06001 14.28 8.88001C14.38 9.57001 14.45 10.33 14.48 11.15H9.52ZM12 4.15002C12.68 4.15002 13.38 5.17002 13.87 6.90002C13.26 7.05002 12.64 7.15002 12 7.15002C11.36 7.15002 10.74 7.05002 10.13 6.90002C10.62 5.16002 11.32 4.15002 12 4.15002ZM7.81 8.23002C7.66 9.15002 7.57 10.13 7.53 11.15H4.07C4.27 9.59002 4.9 8.18001 5.86 7.03001C6.46 7.50001 7.11 7.90002 7.81 8.23002ZM7.52 13.15C7.56 14.13 7.65 15.12 7.8 16.08C7.1 16.4 6.45 16.81 5.86 17.27C4.9 16.12 4.26 14.7 4.07 13.15H7.52ZM16.2 16.08C16.35 15.13 16.45 14.13 16.48 13.15H19.93C19.73 14.71 19.1 16.12 18.14 17.27C17.54 16.8 16.89 16.4 16.2 16.08Z" fill="#2C2C2C"/>
</svg>
