<svg width="24" height="25" viewBox="0 0 24 25" fill="none" xmlns="http://www.w3.org/2000/svg">
<path d="M17 22.15C16.72 22.15 16.45 22.04 16.25 21.81L8.25 12.81C7.91 12.43 7.91 11.86 8.25 11.48L16.25 2.48004C16.62 2.07004 17.25 2.03004 17.66 2.40004C18.07 2.77004 18.11 3.40004 17.74 3.81004L10.33 12.15L17.74 20.49C18.11 20.9 18.07 21.53 17.66 21.9C17.47 22.07 17.23 22.15 17 22.15Z" fill="#9E9E9E"/>
<path d="M13 22.15C12.72 22.15 12.45 22.04 12.25 21.81L4.25 12.81C3.91 12.43 3.91 11.86 4.25 11.48L12.25 2.48004C12.62 2.07004 13.25 2.03004 13.66 2.40004C14.07 2.77004 14.11 3.40004 13.74 3.81004L6.33 12.15L13.74 20.49C14.11 20.9 14.07 21.53 13.66 21.9C13.47 22.07 13.23 22.15 13 22.15Z" fill="#9E9E9E"/>
</svg>
