<svg width="24" height="25" viewBox="0 0 24 25" fill="none" xmlns="http://www.w3.org/2000/svg">
<path d="M18 8.15002H17V6.15002C17 3.39002 14.76 1.15002 12 1.15002C9.24 1.15002 7 3.39002 7 6.15002V8.15002H6C4.9 8.15002 4 9.05002 4 10.15V20.15C4 21.25 4.9 22.15 6 22.15H18C19.1 22.15 20 21.25 20 20.15V10.15C20 9.05002 19.1 8.15002 18 8.15002ZM12 17.15C10.9 17.15 10 16.25 10 15.15C10 14.05 10.9 13.15 12 13.15C13.1 13.15 14 14.05 14 15.15C14 16.25 13.1 17.15 12 17.15ZM15 8.15002H9V6.15002C9 4.50002 10.35 3.15002 12 3.15002C13.65 3.15002 15 4.50002 15 6.15002V8.15002Z" fill="#2C2C2C"/>
</svg>
