<svg width="24" height="25" viewBox="0 0 24 25" fill="none" xmlns="http://www.w3.org/2000/svg">
<path d="M13 15.15V19.15H6V5.15002H13V9.15002H15V4.15002C15 3.60002 14.55 3.15002 14 3.15002H5C4.45 3.15002 4 3.60002 4 4.15002V20.15C4 20.7 4.45 21.15 5 21.15H14C14.55 21.15 15 20.7 15 20.15V15.15H13Z" fill="#2C2C2C"/>
<path d="M21.71 11.44L17.71 7.44002C17.32 7.05002 16.69 7.05002 16.3 7.44002C15.91 7.83002 15.91 8.46002 16.3 8.85002L18.59 11.14H11C10.45 11.14 10 11.59 10 12.14C10 12.69 10.45 13.14 11 13.14H18.59L16.3 15.43C15.91 15.82 15.91 16.45 16.3 16.84C16.5 17.04 16.75 17.13 17.01 17.13C17.27 17.13 17.52 17.03 17.72 16.84L21.72 12.84C22.11 12.45 22.11 11.82 21.72 11.43L21.71 11.44Z" fill="#2C2C2C"/>
</svg>
