<svg width="20" height="20" viewBox="0 0 20 20" fill="none" xmlns="http://www.w3.org/2000/svg">
<path d="M4.99984 11.6666H14.9998V9.99996H4.99984V11.6666ZM4.99984 9.16663H14.9998V7.49996H4.99984V9.16663ZM4.99984 6.66663H14.9998V4.99996H4.99984V6.66663ZM3.33317 15C2.87484 15 2.48262 14.8369 2.1565 14.5108C1.83039 14.1847 1.66706 13.7922 1.6665 13.3333V3.33329C1.6665 2.87496 1.82984 2.48274 2.1565 2.15663C2.48317 1.83051 2.87539 1.66718 3.33317 1.66663H16.6665C17.1248 1.66663 17.5173 1.82996 17.844 2.15663C18.1707 2.48329 18.3337 2.87551 18.3332 3.33329V18.3333L14.9998 15H3.33317Z" fill="#2C2C2C"/>
</svg>
