<svg width="24" height="24" viewBox="0 0 24 24" fill="none" xmlns="http://www.w3.org/2000/svg">
<path d="M6.80952 21C6.3119 21 5.88606 20.823 5.532 20.4689C5.17794 20.1148 5.0006 19.6887 5 19.1905V10.1429C5 9.64524 5.17733 9.2194 5.532 8.86533C5.88667 8.51127 6.31251 8.33394 6.80952 8.33333H7.71429V6.52381C7.71429 5.27222 8.15551 4.20551 9.03795 3.32367C9.9204 2.44183 10.9871 2.0006 12.2381 2C13.4897 2 14.5567 2.44122 15.4391 3.32367C16.3216 4.20611 16.7625 5.27283 16.7619 6.52381V8.33333H17.6667C18.1643 8.33333 18.5904 8.51067 18.9451 8.86533C19.2998 9.22 19.4768 9.64584 19.4762 10.1429V19.1905C19.4762 19.6881 19.2992 20.1142 18.9451 20.4689C18.591 20.8236 18.1649 21.0006 17.6667 21H6.80952ZM12.2381 16.4762C12.7357 16.4762 13.1619 16.2992 13.5165 15.9451C13.8712 15.591 14.0482 15.1649 14.0476 14.6667C14.0476 14.169 13.8706 13.7432 13.5165 13.3891C13.1625 13.0351 12.7363 12.8577 12.2381 12.8571C11.7405 12.8571 11.3146 13.0345 10.9606 13.3891C10.6065 13.7438 10.4292 14.1697 10.4286 14.6667C10.4286 15.1643 10.6059 15.5904 10.9606 15.9451C11.3152 16.2998 11.7411 16.4768 12.2381 16.4762ZM9.52381 8.33333H14.9524V6.52381C14.9524 5.76984 14.6885 5.12897 14.1607 4.60119C13.6329 4.07341 12.9921 3.80952 12.2381 3.80952C11.4841 3.80952 10.8433 4.07341 10.3155 4.60119C9.7877 5.12897 9.52381 5.76984 9.52381 6.52381V8.33333Z" fill="#2C2C2C"/>
</svg>
