<svg width="104" height="80" viewBox="0 0 104 80" fill="none" xmlns="http://www.w3.org/2000/svg">
<rect width="104" height="80" fill="#E9F4FE"/>
<path d="M49.9073 28.195L50.464 30.209C50.9884 32.1063 51.25 33.0554 52.0208 33.4868C52.7916 33.9192 53.7699 33.6641 55.7266 33.156L57.8023 32.6154C59.759 32.1073 60.7373 31.8533 61.1827 31.1063C61.6281 30.3582 61.3665 29.409 60.8411 27.5118L60.2855 25.4988C59.7611 23.6005 59.4985 22.6513 58.7287 22.22C57.9569 21.7876 56.9785 22.0427 55.0218 22.5519L52.9462 23.0902C50.9894 23.5983 50.0111 23.8535 49.5668 24.6016C49.1214 25.3486 49.383 26.2977 49.9073 28.195Z" fill="#2C2C2C"/>
<path d="M42.0294 24.4298C42.0579 24.3271 42.1063 24.231 42.1719 24.1471C42.2376 24.0631 42.3191 23.993 42.4119 23.9406C42.5046 23.8881 42.6068 23.8545 42.7126 23.8416C42.8184 23.8288 42.9256 23.8368 43.0283 23.8654L44.8693 24.3757C45.3573 24.5082 45.8025 24.7649 46.1617 25.1207C46.521 25.4765 46.7819 25.9193 46.919 26.4059L49.2444 34.8231L49.4152 35.4144C50.1046 35.6685 50.6856 36.1522 51.0606 36.7841L51.3957 36.6803L60.9847 34.1885C61.0877 34.1616 61.1951 34.1554 61.3006 34.17C61.4061 34.1847 61.5076 34.22 61.5995 34.2739C61.6913 34.3278 61.7717 34.3992 61.8359 34.4842C61.9001 34.5692 61.947 34.6659 61.9738 34.769C62.0007 34.8721 62.0069 34.9794 61.9923 35.0849C61.9776 35.1904 61.9424 35.292 61.8884 35.3838C61.8345 35.4757 61.7631 35.556 61.6781 35.6202C61.5932 35.6845 61.4964 35.7313 61.3933 35.7582L51.84 38.2403L51.4832 38.3505C51.4768 39.7235 50.5287 40.9797 49.0941 41.3516C47.3752 41.7991 45.6077 40.8089 45.1472 39.1419C44.6866 37.4738 45.7072 35.7592 47.426 35.3128C47.5107 35.2909 47.5962 35.2722 47.6822 35.2566L45.3558 26.8373C45.2932 26.621 45.1756 26.4245 45.0146 26.2671C44.8536 26.1097 44.6546 25.9966 44.4369 25.9389L42.5948 25.4276C42.4921 25.3992 42.3961 25.3509 42.3121 25.2854C42.2281 25.2199 42.1579 25.1385 42.1054 25.0458C42.0529 24.9531 42.0191 24.851 42.0061 24.7453C41.9931 24.6396 42.001 24.5324 42.0294 24.4298Z" fill="#2C2C2C"/>
<path d="M37.62 62.168C35.4 62.168 33.864 60.392 33.864 57.572C33.864 54.752 35.4 53.048 37.62 53.048C39.828 53.048 41.364 54.764 41.364 57.572C41.364 60.392 39.828 62.168 37.62 62.168ZM37.62 61.184C39.192 61.184 40.236 59.768 40.236 57.572C40.236 55.376 39.192 54.02 37.62 54.02C36.036 54.02 35.004 55.376 35.004 57.572C35.004 59.768 36.036 61.184 37.62 61.184ZM43.1782 62V55.484H44.0662L44.1742 56.672H44.2102C44.6542 55.844 45.3262 55.328 46.0582 55.328C46.3462 55.328 46.5382 55.364 46.7542 55.46L46.5502 56.42C46.3222 56.348 46.1782 56.312 45.9142 56.312C45.3742 56.312 44.7022 56.708 44.2702 57.824V62H43.1782ZM49.8745 62.168C48.2425 62.168 47.1865 60.932 47.1865 58.76C47.1865 56.636 48.5305 55.328 50.0185 55.328C50.7745 55.328 51.2785 55.604 51.8425 56.084L51.7945 54.956V52.46H52.8865V62H51.9865L51.8905 61.232H51.8665C51.3505 61.748 50.6665 62.168 49.8745 62.168ZM50.1145 61.244C50.7265 61.244 51.2545 60.944 51.7945 60.356V56.936C51.2425 56.432 50.7385 56.24 50.1985 56.24C49.1545 56.24 48.3265 57.26 48.3265 58.748C48.3265 60.308 48.9745 61.244 50.1145 61.244ZM57.7359 62.168C55.9959 62.168 54.6159 60.896 54.6159 58.76C54.6159 56.636 56.0439 55.328 57.5439 55.328C59.1999 55.328 60.1359 56.516 60.1359 58.388C60.1359 58.616 60.1239 58.844 60.0879 59.012H55.6959C55.7799 60.392 56.6199 61.292 57.8679 61.292C58.4919 61.292 59.0079 61.088 59.4879 60.764L59.8839 61.496C59.3079 61.868 58.6239 62.168 57.7359 62.168ZM55.6839 58.22H59.1759C59.1759 56.912 58.5879 56.204 57.5559 56.204C56.6439 56.204 55.8279 56.936 55.6839 58.22ZM61.7524 62V55.484H62.6404L62.7484 56.672H62.7844C63.2284 55.844 63.9004 55.328 64.6324 55.328C64.9204 55.328 65.1124 55.364 65.3284 55.46L65.1244 56.42C64.8964 56.348 64.7524 56.312 64.4884 56.312C63.9484 56.312 63.2764 56.708 62.8444 57.824V62H61.7524ZM68.0268 62.168C67.1028 62.168 66.2028 61.772 65.5908 61.268L66.1308 60.536C66.6948 60.992 67.2708 61.316 68.0508 61.316C68.9148 61.316 69.3468 60.86 69.3468 60.284C69.3468 59.624 68.5668 59.324 67.8468 59.06C66.9468 58.712 65.9508 58.28 65.9508 57.164C65.9508 56.132 66.7788 55.328 68.1948 55.328C68.9988 55.328 69.7188 55.652 70.2228 56.06L69.6948 56.756C69.2508 56.432 68.7828 56.18 68.2068 56.18C67.3788 56.18 67.0068 56.612 67.0068 57.116C67.0068 57.74 67.6668 57.98 68.4108 58.244C69.3588 58.604 70.3908 58.988 70.3908 60.224C70.3908 61.292 69.5628 62.168 68.0268 62.168Z" fill="#2C2C2C"/>
</svg>
