<svg width="24" height="25" viewBox="0 0 24 25" fill="none" xmlns="http://www.w3.org/2000/svg">
<path d="M18.8 3.72997C18.75 3.46997 18.61 3.23997 18.39 3.07997C18.17 2.92997 17.91 2.86997 17.64 2.90997L8.78 4.46997C8.24 4.56997 7.87 5.07997 7.97 5.62997L9.53 14.49C9.58 14.75 9.71999 14.98 9.93999 15.14C10.11 15.26 10.31 15.32 10.51 15.32C10.57 15.32 10.63 15.32 10.68 15.3L19.54 13.74C20.08 13.64 20.45 13.13 20.35 12.58L18.79 3.71997L18.8 3.72997Z" fill="#2C2C2C"/>
<path d="M19.9 15.72L8.64 17.71C8.5 17.45 8.34 17.21 8.14 17.01L6.24 6.24995C6.17 5.87995 5.9 5.56995 5.54 5.46995L3.4 4.82995C2.87 4.66995 2.31 4.97995 2.16 5.49995C2 6.02995 2.3 6.58995 2.83 6.73995L4.38 7.19995L5.95 16.0999C4.31 16.12 2.99 17.45 2.99 19.0999C2.99 20.7499 4.33 22.1 5.99 22.1C7.44 22.1 8.66 21.0599 8.93 19.6899L20.24 17.6999C20.78 17.5999 21.15 17.09 21.05 16.54C20.95 16 20.43 15.6299 19.89 15.7299L19.9 15.72Z" fill="#2C2C2C"/>
</svg>
