<svg width="20" height="20" viewBox="0 0 20 20" fill="none" xmlns="http://www.w3.org/2000/svg">
<path d="M10.0621 16.98L10.0621 16.98L10.0592 16.9815C10.041 16.9913 10.0207 16.9965 10 16.9965C9.97933 16.9965 9.95898 16.9913 9.94079 16.9815L9.93785 16.98C9.7821 16.8975 7.70624 15.7661 5.67687 13.9889C3.62122 12.1886 1.75014 9.84433 1.75 7.34402C1.75137 6.19234 2.20949 5.08822 3.02385 4.27385C3.83822 3.45949 4.94234 3.00137 6.09403 3C7.56107 3.00008 8.82069 3.62848 9.60016 4.66662L10 5.19915L10.3998 4.66662C11.1793 3.62848 12.4389 3.00008 13.906 3C15.0577 3.00137 16.1618 3.45948 16.9761 4.27385C17.7906 5.08829 18.2487 6.19253 18.25 7.34431C18.2497 9.84451 16.3787 12.1887 14.3231 13.9889C12.2938 15.7661 10.2179 16.8975 10.0621 16.98Z" stroke="#2C2C2C"/>
</svg>
