<svg width="24" height="24" viewBox="0 0 24 24" fill="none" xmlns="http://www.w3.org/2000/svg">
<path d="M19.62 18.47C21.1 16.73 22 14.47 22 12C22 6.48 17.52 2 12 2C6.48 2 2 6.48 2 12C2 14.47 2.9 16.73 4.38 18.47C4.6 18.73 4.83 18.97 5.08 19.21C5.12 19.24 5.15 19.28 5.19 19.31C5.4 19.51 5.62 19.7 5.85 19.87C5.91 19.92 5.97 19.96 6.03 20.01C6.24 20.17 6.45 20.32 6.68 20.45C6.76 20.5 6.84 20.55 6.93 20.6C7.14 20.72 7.35 20.84 7.57 20.95C7.67 21 7.77 21.05 7.87 21.09C8.08 21.19 8.3 21.27 8.52 21.35C8.63 21.39 8.74 21.43 8.85 21.47C9.07 21.54 9.29 21.6 9.52 21.66C9.64 21.69 9.75 21.72 9.87 21.75C10.11 21.8 10.35 21.84 10.6 21.87C10.71 21.89 10.82 21.91 10.93 21.92C11.29 21.96 11.65 21.98 12.01 21.98C12.37 21.98 12.74 21.96 13.09 21.92C13.2 21.91 13.31 21.89 13.42 21.87C13.66 21.84 13.91 21.8 14.15 21.75C14.27 21.72 14.39 21.69 14.5 21.66C14.72 21.6 14.95 21.54 15.17 21.47C15.28 21.43 15.39 21.39 15.5 21.35C15.72 21.27 15.94 21.18 16.15 21.09C16.25 21.04 16.35 21 16.45 20.95C16.67 20.84 16.88 20.73 17.09 20.6C17.17 20.55 17.25 20.5 17.34 20.45C17.56 20.31 17.78 20.16 17.99 20.01C18.05 19.96 18.11 19.92 18.17 19.87C18.4 19.69 18.62 19.5 18.83 19.3C18.87 19.27 18.9 19.24 18.94 19.2C19.19 18.96 19.42 18.72 19.64 18.46L19.62 18.47ZM12 4C16.41 4 20 7.59 20 12C20 13.86 19.36 15.57 18.29 16.93C16.83 15.76 14.56 15 12 15C9.44 15 7.18 15.76 5.71 16.93C4.64 15.57 4 13.86 4 12C4 7.59 7.59 4 12 4Z" fill="#2291F8"/>
<path d="M12 13C13.6569 13 15 11.6569 15 10C15 8.34315 13.6569 7 12 7C10.3431 7 9 8.34315 9 10C9 11.6569 10.3431 13 12 13Z" fill="#2291F8"/>
</svg>
