<svg width="24" height="25" viewBox="0 0 24 25" fill="none" xmlns="http://www.w3.org/2000/svg">
<path d="M7 22.15C6.76 22.15 6.52999 22.07 6.33999 21.9C5.92999 21.53 5.89 20.9 6.26 20.49L13.67 12.15L6.26 3.81004C5.89 3.40004 5.92999 2.77004 6.33999 2.40004C6.74999 2.03004 7.38 2.07004 7.75 2.48004L15.75 11.48C16.09 11.86 16.09 12.43 15.75 12.81L7.75 21.81C7.55 22.03 7.28 22.15 7 22.15Z" fill="#9E9E9E"/>
<path d="M11 22.15C10.76 22.15 10.53 22.07 10.34 21.9C9.92999 21.53 9.89 20.9 10.26 20.49L17.67 12.15L10.26 3.81004C9.89 3.40004 9.92999 2.77004 10.34 2.40004C10.75 2.03004 11.38 2.07004 11.75 2.48004L19.75 11.48C20.09 11.86 20.09 12.43 19.75 12.81L11.75 21.81C11.55 22.03 11.28 22.15 11 22.15Z" fill="#9E9E9E"/>
</svg>
