<svg width="24" height="24" viewBox="0 0 24 24" fill="none" xmlns="http://www.w3.org/2000/svg">
<path d="M14.5001 2.04998C10.3601 2.04998 7.00006 5.40998 7.00006 9.54998C7.00006 11.26 7.58006 12.83 8.54006 14.09L2.29006 20.34C1.90006 20.73 1.90006 21.36 2.29006 21.75C2.49006 21.95 2.74006 22.04 3.00006 22.04C3.26006 22.04 3.51006 21.94 3.71006 21.75L9.96006 15.5C11.2201 16.46 12.7901 17.04 14.5001 17.04C18.6401 17.04 22.0001 13.68 22.0001 9.53998C22.0001 5.39998 18.6401 2.03998 14.5001 2.03998V2.04998ZM14.5001 15.05C13.1401 15.05 11.9001 14.55 10.9401 13.73C10.7201 13.54 10.5101 13.33 10.3201 13.11C9.50006 12.15 9.00006 10.91 9.00006 9.54998C9.00006 6.51998 11.4701 4.04998 14.5001 4.04998C17.5301 4.04998 20.0001 6.51998 20.0001 9.54998C20.0001 12.58 17.5301 15.05 14.5001 15.05Z" fill="#2C2C2C"/>
</svg>
