<svg width="24" height="25" viewBox="0 0 24 25" fill="none" xmlns="http://www.w3.org/2000/svg">
<path d="M19.39 11.13L5.39001 5.12999C5.26001 5.07999 5.13001 5.04999 5.00001 5.04999C4.73001 5.04999 4.47001 5.15999 4.27001 5.35999C3.98001 5.66999 3.92001 6.11999 4.10001 6.48999L6.38001 11.04H11C11.55 11.04 12 11.49 12 12.04C12 12.59 11.55 13.04 11 13.04H6.38001L4.10001 17.59C3.91001 17.97 3.98001 18.42 4.27001 18.72C4.46001 18.92 4.73001 19.03 5.00001 19.03C5.13001 19.03 5.27001 19 5.39001 18.95L19.39 12.95C19.76 12.79 20 12.43 20 12.03C20 11.63 19.76 11.27 19.39 11.11V11.13Z" fill="#2C2C2C"/>
</svg>
