<svg width="80" height="86" viewBox="0 0 80 86" fill="none" xmlns="http://www.w3.org/2000/svg">
<g filter="url(#filter0_d_660_1380)">
<circle cx="40" cy="40" r="40" transform="matrix(-1 0 0 1 80 0)" fill="#BDBDBD"/>
<circle cx="40" cy="40" r="38" transform="matrix(-1 0 0 1 80 0)" stroke="#424242" stroke-width="4"/>
</g>
<path d="M40.4393 28.8613C40.9932 28.8541 41.5604 29.2648 41.8162 29.9131C42.131 30.7109 41.8561 31.5668 41.2024 31.8246C40.5489 32.0825 39.7639 31.6455 39.449 30.8476C39.1342 30.0498 39.4092 29.1939 40.0628 28.9361C40.1827 28.8883 40.3102 28.863 40.4392 28.8613H40.4393ZM36.9354 29.6084C37.4496 29.6087 38.0014 29.8908 38.3782 30.3994C38.9524 31.1744 38.9032 32.1834 38.2684 32.6538C37.6335 33.1242 36.654 32.8766 36.0799 32.1016C35.5057 31.3265 35.5549 30.3175 36.1898 29.8472C36.4079 29.6855 36.666 29.6083 36.9353 29.6084L36.9354 29.6084ZM33.783 31.3676C34.2675 31.3617 34.7928 31.5674 35.2113 31.9726C35.9552 32.693 36.0797 33.77 35.4896 34.3794C34.8995 34.9888 33.818 34.899 33.0741 34.1788C32.3302 33.4583 32.2057 32.3813 32.7957 31.772C33.0539 31.5052 33.4062 31.3723 33.7831 31.3676H33.783ZM41.1161 32.8706C42.1712 32.8574 43.1963 33.1937 44.0926 33.9956C46.9537 36.5553 49.7408 40.2349 50.6742 46.1392C51.7644 53.0359 43.269 51.7901 44.1101 48.1063C45.1846 43.4007 42.5103 41.4918 39.0476 42.2865C37.5084 42.64 35.9286 42.0568 35.0164 40.3911C33.9194 38.388 35.3646 35.384 37.9637 33.8462C38.9766 33.2466 40.0609 32.8836 41.116 32.8705L41.1161 32.8706ZM30.9324 34.2812C31.4255 34.2823 31.9474 34.4134 32.4368 34.6855C33.7416 35.4111 34.3188 36.8657 33.7244 37.9346C33.13 39.0034 31.5897 39.2813 30.2849 38.5557C28.9801 37.83 28.4044 36.3755 28.9988 35.3066C29.3703 34.6385 30.1105 34.2796 30.9324 34.2812H30.9324Z" fill="#757575"/>
<defs>
<filter id="filter0_d_660_1380" x="0" y="0" width="80" height="86" filterUnits="userSpaceOnUse" color-interpolation-filters="sRGB">
<feFlood flood-opacity="0" result="BackgroundImageFix"/>
<feColorMatrix in="SourceAlpha" type="matrix" values="0 0 0 0 0 0 0 0 0 0 0 0 0 0 0 0 0 0 127 0" result="hardAlpha"/>
<feOffset dy="6"/>
<feComposite in2="hardAlpha" operator="out"/>
<feColorMatrix type="matrix" values="0 0 0 0 0.458824 0 0 0 0 0.458824 0 0 0 0 0.458824 0 0 0 1 0"/>
<feBlend mode="normal" in2="BackgroundImageFix" result="effect1_dropShadow_660_1380"/>
<feBlend mode="normal" in="SourceGraphic" in2="effect1_dropShadow_660_1380" result="shape"/>
</filter>
</defs>
</svg>
