<svg width="56" height="56" viewBox="0 0 56 56" fill="none" xmlns="http://www.w3.org/2000/svg">
<path d="M23.6075 38.785L13 28.175L16.535 24.64L23.6075 31.71L37.7475 17.5675L41.285 21.105L23.6075 38.785Z" fill="#88C507"/>
<path fill-rule="evenodd" clip-rule="evenodd" d="M0.5 28C0.5 12.8125 12.8125 0.5 28 0.5C43.1875 0.5 55.5 12.8125 55.5 28C55.5 43.1875 43.1875 55.5 28 55.5C12.8125 55.5 0.5 43.1875 0.5 28ZM28 50.5C25.0453 50.5 22.1194 49.918 19.3896 48.7873C16.6598 47.6566 14.1794 45.9992 12.0901 43.9099C10.0008 41.8206 8.34344 39.3402 7.21271 36.6104C6.08198 33.8806 5.5 30.9547 5.5 28C5.5 25.0453 6.08198 22.1194 7.21271 19.3896C8.34344 16.6598 10.0008 14.1794 12.0901 12.0901C14.1794 10.0008 16.6598 8.34344 19.3896 7.21271C22.1194 6.08198 25.0453 5.5 28 5.5C33.9674 5.5 39.6903 7.87053 43.9099 12.0901C48.1295 16.3097 50.5 22.0326 50.5 28C50.5 33.9674 48.1295 39.6903 43.9099 43.9099C39.6903 48.1295 33.9674 50.5 28 50.5Z" fill="#88C507"/>
</svg>
